<svg xmlns="http://www.w3.org/2000/svg" viewBox="0 0 912 1532" width="912" height="1532" style="font-family: ui-monospace, monospace; font-size: 12px;"><defs><marker id="arrow" viewBox="0 0 10 10" refX="10" refY="5" markerWidth="8" markerHeight="8" orient="auto-start-reverse"><path d="M 0 0 L 10 5 L 0 10 z" fill="rgba(154,124,255,0.6)"></path></marker></defs><path d="M 256 169 C 296 169, 296 1181, 336 1181" fill="none" stroke="rgba(154,124,255,0.4)" stroke-width="1.5" marker-end="url(#arrow)"></path><path d="M 336 103 C 296 103, 296 59, 256 59" fill="none" stroke="rgba(154,124,255,0.4)" stroke-width="1.5" marker-end="url(#arrow)"></path><path d="M 656 125 C 456 125, 456 59, 256 59" fill="none" stroke="rgba(154,124,255,0.4)" stroke-width="1.5" marker-end="url(#arrow)"></path><path d="M 336 301 C 296 301, 296 59, 256 59" fill="none" stroke="rgba(154,124,255,0.4)" stroke-width="1.5" marker-end="url(#arrow)"></path><path d="M 656 279 C 456 279, 456 59, 256 59" fill="none" stroke="rgba(154,124,255,0.4)" stroke-width="1.5" marker-end="url(#arrow)"></path><path d="M 656 301 C 616 301, 616 279, 576 279" fill="none" stroke="rgba(154,124,255,0.4)" stroke-width="1.5" marker-end="url(#arrow)"></path><path d="M 336 499 C 296 499, 296 59, 256 59" fill="none" stroke="rgba(154,124,255,0.4)" stroke-width="1.5" marker-end="url(#arrow)"></path><path d="M 576 521 C 576 521, 576 279, 576 279" fill="none" stroke="rgba(154,124,255,0.4)" stroke-width="1.5" marker-end="url(#arrow)"></path><path d="M 336 543 C 296 543, 296 499, 256 499" fill="none" stroke="rgba(154,124,255,0.4)" stroke-width="1.5" marker-end="url(#arrow)"></path><path d="M 656 543 C 456 543, 456 499, 256 499" fill="none" stroke="rgba(154,124,255,0.4)" stroke-width="1.5" marker-end="url(#arrow)"></path><path d="M 256 741 C 296 741, 296 279, 336 279" fill="none" stroke="rgba(154,124,255,0.4)" stroke-width="1.5" marker-end="url(#arrow)"></path><path d="M 336 807 C 296 807, 296 719, 256 719" fill="none" stroke="rgba(154,124,255,0.4)" stroke-width="1.5" marker-end="url(#arrow)"></path><path d="M 656 763 C 616 763, 616 719, 576 719" fill="none" stroke="rgba(154,124,255,0.4)" stroke-width="1.5" marker-end="url(#arrow)"></path><path d="M 656 785 C 456 785, 456 917, 256 917" fill="none" stroke="rgba(154,124,255,0.4)" stroke-width="1.5" marker-end="url(#arrow)"></path><path d="M 656 807 C 456 807, 456 1181, 256 1181" fill="none" stroke="rgba(154,124,255,0.4)" stroke-width="1.5" marker-end="url(#arrow)"></path><path d="M 256 961 C 296 961, 296 719, 336 719" fill="none" stroke="rgba(154,124,255,0.4)" stroke-width="1.5" marker-end="url(#arrow)"></path><path d="M 576 1005 C 616 1005, 616 719, 656 719" fill="none" stroke="rgba(154,124,255,0.4)" stroke-width="1.5" marker-end="url(#arrow)"></path><path d="M 576 1027 C 616 1027, 616 917, 656 917" fill="none" stroke="rgba(154,124,255,0.4)" stroke-width="1.5" marker-end="url(#arrow)"></path><path d="M 656 1269 C 616 1269, 616 1181, 576 1181" fill="none" stroke="rgba(154,124,255,0.4)" stroke-width="1.5" marker-end="url(#arrow)"></path><path d="M 656 1335 C 456 1335, 456 59, 256 59" fill="none" stroke="rgba(154,124,255,0.4)" stroke-width="1.5" marker-end="url(#arrow)"></path><path d="M 256 1445 C 296 1445, 296 279, 336 279" fill="none" stroke="rgba(154,124,255,0.4)" stroke-width="1.5" marker-end="url(#arrow)"></path><path d="M 256 1467 C 456 1467, 456 1181, 656 1181" fill="none" stroke="rgba(154,124,255,0.4)" stroke-width="1.5" marker-end="url(#arrow)"></path><path d="M 576 1489 C 616 1489, 616 1181, 656 1181" fill="none" stroke="rgba(154,124,255,0.4)" stroke-width="1.5" marker-end="url(#arrow)"></path><path d="M 656 1445 C 456 1445, 456 59, 256 59" fill="none" stroke="rgba(154,124,255,0.4)" stroke-width="1.5" marker-end="url(#arrow)"></path><path d="M 896 1467 C 896 1467, 896 1181, 896 1181" fill="none" stroke="rgba(154,124,255,0.4)" stroke-width="1.5" marker-end="url(#arrow)"></path><rect x="16" y="16" width="240" height="180" rx="8" fill="rgba(22,22,22,1)" stroke="rgba(255,255,255,0.1)" stroke-width="1"></rect><rect x="16" y="16" width="240" height="32" rx="8" fill="rgba(154,124,255,0.12)"></rect><rect x="16" y="44" width="240" height="4" fill="rgba(154,124,255,0.12)"></rect><text x="28" y="37" fill="rgba(255,255,255,1)" font-weight="600" font-size="13">User</text><text x="28" y="63" fill="rgba(255,255,255,0.85)">id</text><rect x="48.4" y="53" width="22" height="14" rx="3" fill="rgba(79,188,252,0.7)" opacity="0.2"></rect><text x="59.4" y="62" fill="rgba(79,188,252,0.7)" font-size="9" font-weight="600" text-anchor="middle">PK</text><text x="244" y="63" fill="rgba(255,255,255,0.4)" text-anchor="end" font-size="11">Int</text><text x="28" y="85" fill="rgba(255,255,255,0.85)">email</text><text x="244" y="85" fill="rgba(255,255,255,0.4)" text-anchor="end" font-size="11">String</text><text x="28" y="107" fill="rgba(255,255,255,0.85)">username</text><text x="244" y="107" fill="rgba(255,255,255,0.4)" text-anchor="end" font-size="11">String</text><text x="28" y="129" fill="rgba(255,255,255,0.85)">createdAt</text><text x="244" y="129" fill="rgba(255,255,255,0.4)" text-anchor="end" font-size="11">DateTime</text><text x="28" y="151" fill="rgba(255,255,255,0.85)">updatedAt</text><text x="244" y="151" fill="rgba(255,255,255,0.4)" text-anchor="end" font-size="11">DateTime</text><text x="28" y="173" fill="rgba(154,124,255,0.9)">imageId</text><rect x="84.4" y="163" width="22" height="14" rx="3" fill="rgba(154,124,255,0.7)" opacity="0.2"></rect><text x="95.4" y="172" fill="rgba(154,124,255,0.7)" font-size="9" font-weight="600" text-anchor="middle">FK</text><text x="244" y="173" fill="rgba(255,255,255,0.4)" text-anchor="end" font-size="11">Int</text><rect x="336" y="16" width="240" height="136" rx="8" fill="rgba(22,22,22,1)" stroke="rgba(255,255,255,0.1)" stroke-width="1"></rect><rect x="336" y="16" width="240" height="32" rx="8" fill="rgba(154,124,255,0.12)"></rect><rect x="336" y="44" width="240" height="4" fill="rgba(154,124,255,0.12)"></rect><text x="348" y="37" fill="rgba(255,255,255,1)" font-weight="600" font-size="13">ClassicAuthMethod</text><text x="348" y="63" fill="rgba(255,255,255,0.85)">id</text><rect x="368.4" y="53" width="22" height="14" rx="3" fill="rgba(79,188,252,0.7)" opacity="0.2"></rect><text x="379.4" y="62" fill="rgba(79,188,252,0.7)" font-size="9" font-weight="600" text-anchor="middle">PK</text><text x="564" y="63" fill="rgba(255,255,255,0.4)" text-anchor="end" font-size="11">Int</text><text x="348" y="85" fill="rgba(255,255,255,0.85)">password</text><text x="564" y="85" fill="rgba(255,255,255,0.4)" text-anchor="end" font-size="11">String</text><text x="348" y="107" fill="rgba(154,124,255,0.9)">userId</text><rect x="397.2" y="97" width="22" height="14" rx="3" fill="rgba(154,124,255,0.7)" opacity="0.2"></rect><text x="408.2" y="106" fill="rgba(154,124,255,0.7)" font-size="9" font-weight="600" text-anchor="middle">FK</text><text x="564" y="107" fill="rgba(255,255,255,0.4)" text-anchor="end" font-size="11">Int</text><text x="348" y="129" fill="rgba(255,255,255,0.85)">createdAt</text><text x="564" y="129" fill="rgba(255,255,255,0.4)" text-anchor="end" font-size="11">DateTime</text><rect x="656" y="16" width="240" height="158" rx="8" fill="rgba(22,22,22,1)" stroke="rgba(255,255,255,0.1)" stroke-width="1"></rect><rect x="656" y="16" width="240" height="32" rx="8" fill="rgba(154,124,255,0.12)"></rect><rect x="656" y="44" width="240" height="4" fill="rgba(154,124,255,0.12)"></rect><text x="668" y="37" fill="rgba(255,255,255,1)" font-weight="600" font-size="13">AuthMethod</text><text x="668" y="63" fill="rgba(255,255,255,0.85)">id</text><rect x="688.4" y="53" width="22" height="14" rx="3" fill="rgba(79,188,252,0.7)" opacity="0.2"></rect><text x="699.4" y="62" fill="rgba(79,188,252,0.7)" font-size="9" font-weight="600" text-anchor="middle">PK</text><text x="884" y="63" fill="rgba(255,255,255,0.4)" text-anchor="end" font-size="11">Int</text><text x="668" y="85" fill="rgba(255,255,255,0.85)">provider</text><text x="884" y="85" fill="rgba(255,255,255,0.4)" text-anchor="end" font-size="11">AuthProvider</text><text x="668" y="107" fill="rgba(255,255,255,0.85)">providerId</text><text x="884" y="107" fill="rgba(255,255,255,0.4)" text-anchor="end" font-size="11">String</text><text x="668" y="129" fill="rgba(154,124,255,0.9)">userId</text><rect x="717.2" y="119" width="22" height="14" rx="3" fill="rgba(154,124,255,0.7)" opacity="0.2"></rect><text x="728.2" y="128" fill="rgba(154,124,255,0.7)" font-size="9" font-weight="600" text-anchor="middle">FK</text><text x="884" y="129" fill="rgba(255,255,255,0.4)" text-anchor="end" font-size="11">Int</text><text x="668" y="151" fill="rgba(255,255,255,0.85)">createdAt</text><text x="884" y="151" fill="rgba(255,255,255,0.4)" text-anchor="end" font-size="11">DateTime</text><rect x="16" y="236" width="240" height="114" rx="8" fill="rgba(22,22,22,1)" stroke="rgba(255,255,255,0.1)" stroke-width="1"></rect><rect x="16" y="236" width="240" height="32" rx="8" fill="rgba(154,124,255,0.12)"></rect><rect x="16" y="264" width="240" height="4" fill="rgba(154,124,255,0.12)"></rect><text x="28" y="257" fill="rgba(255,255,255,1)" font-weight="600" font-size="13">UserLikesUser</text><text x="28" y="283" fill="rgba(255,255,255,0.85)">likedId</text><rect x="84.4" y="273" width="22" height="14" rx="3" fill="rgba(79,188,252,0.7)" opacity="0.2"></rect><text x="95.4" y="282" fill="rgba(79,188,252,0.7)" font-size="9" font-weight="600" text-anchor="middle">PK</text><text x="244" y="283" fill="rgba(255,255,255,0.4)" text-anchor="end" font-size="11">Int</text><text x="28" y="305" fill="rgba(255,255,255,0.85)">likingId</text><rect x="91.6" y="295" width="22" height="14" rx="3" fill="rgba(79,188,252,0.7)" opacity="0.2"></rect><text x="102.6" y="304" fill="rgba(79,188,252,0.7)" font-size="9" font-weight="600" text-anchor="middle">PK</text><text x="244" y="305" fill="rgba(255,255,255,0.4)" text-anchor="end" font-size="11">Int</text><text x="28" y="327" fill="rgba(255,255,255,0.85)">likedAt</text><text x="244" y="327" fill="rgba(255,255,255,0.4)" text-anchor="end" font-size="11">DateTime</text><rect x="336" y="236" width="240" height="180" rx="8" fill="rgba(22,22,22,1)" stroke="rgba(255,255,255,0.1)" stroke-width="1"></rect><rect x="336" y="236" width="240" height="32" rx="8" fill="rgba(154,124,255,0.12)"></rect><rect x="336" y="264" width="240" height="4" fill="rgba(154,124,255,0.12)"></rect><text x="348" y="257" fill="rgba(255,255,255,1)" font-weight="600" font-size="13">Exercise</text><text x="348" y="283" fill="rgba(255,255,255,0.85)">id</text><rect x="368.4" y="273" width="22" height="14" rx="3" fill="rgba(79,188,252,0.7)" opacity="0.2"></rect><text x="379.4" y="282" fill="rgba(79,188,252,0.7)" font-size="9" font-weight="600" text-anchor="middle">PK</text><text x="564" y="283" fill="rgba(255,255,255,0.4)" text-anchor="end" font-size="11">Int</text><text x="348" y="305" fill="rgba(154,124,255,0.9)">authorId</text><rect x="411.6" y="295" width="22" height="14" rx="3" fill="rgba(154,124,255,0.7)" opacity="0.2"></rect><text x="422.6" y="304" fill="rgba(154,124,255,0.7)" font-size="9" font-weight="600" text-anchor="middle">FK</text><text x="564" y="305" fill="rgba(255,255,255,0.4)" text-anchor="end" font-size="11">Int</text><text x="348" y="327" fill="rgba(255,255,255,0.85)">title</text><text x="564" y="327" fill="rgba(255,255,255,0.4)" text-anchor="end" font-size="11">String</text><text x="348" y="349" fill="rgba(255,255,255,0.85)">composer</text><text x="564" y="349" fill="rgba(255,255,255,0.4)" text-anchor="end" font-size="11">String</text><text x="348" y="371" fill="rgba(255,255,255,0.85)">configId</text><text x="564" y="371" fill="rgba(255,255,255,0.4)" text-anchor="end" font-size="11">Int</text><text x="348" y="393" fill="rgba(255,255,255,0.85)">originPlaylistId</text><text x="564" y="393" fill="rgba(255,255,255,0.4)" text-anchor="end" font-size="11">Int</text><rect x="656" y="236" width="240" height="114" rx="8" fill="rgba(22,22,22,1)" stroke="rgba(255,255,255,0.1)" stroke-width="1"></rect><rect x="656" y="236" width="240" height="32" rx="8" fill="rgba(154,124,255,0.12)"></rect><rect x="656" y="264" width="240" height="4" fill="rgba(154,124,255,0.12)"></rect><text x="668" y="257" fill="rgba(255,255,255,1)" font-weight="600" font-size="13">UserLikesExercise</text><text x="668" y="283" fill="rgba(154,124,255,0.9)">userId</text><rect x="717.2" y="273" width="22" height="14" rx="3" fill="rgba(79,188,252,0.7)" opacity="0.2"></rect><text x="728.2" y="282" fill="rgba(79,188,252,0.7)" font-size="9" font-weight="600" text-anchor="middle">PK</text><rect x="745.2" y="273" width="22" height="14" rx="3" fill="rgba(154,124,255,0.7)" opacity="0.2"></rect><text x="756.2" y="282" fill="rgba(154,124,255,0.7)" font-size="9" font-weight="600" text-anchor="middle">FK</text><text x="884" y="283" fill="rgba(255,255,255,0.4)" text-anchor="end" font-size="11">Int</text><text x="668" y="305" fill="rgba(154,124,255,0.9)">exerciseId</text><rect x="746" y="295" width="22" height="14" rx="3" fill="rgba(79,188,252,0.7)" opacity="0.2"></rect><text x="757" y="304" fill="rgba(79,188,252,0.7)" font-size="9" font-weight="600" text-anchor="middle">PK</text><rect x="774" y="295" width="22" height="14" rx="3" fill="rgba(154,124,255,0.7)" opacity="0.2"></rect><text x="785" y="304" fill="rgba(154,124,255,0.7)" font-size="9" font-weight="600" text-anchor="middle">FK</text><text x="884" y="305" fill="rgba(255,255,255,0.4)" text-anchor="end" font-size="11">Int</text><text x="668" y="327" fill="rgba(255,255,255,0.85)">likedAt</text><text x="884" y="327" fill="rgba(255,255,255,0.4)" text-anchor="end" font-size="11">DateTime</text><rect x="16" y="456" width="240" height="180" rx="8" fill="rgba(22,22,22,1)" stroke="rgba(255,255,255,0.1)" stroke-width="1"></rect><rect x="16" y="456" width="240" height="32" rx="8" fill="rgba(154,124,255,0.12)"></rect><rect x="16" y="484" width="240" height="4" fill="rgba(154,124,255,0.12)"></rect><text x="28" y="477" fill="rgba(255,255,255,1)" font-weight="600" font-size="13">Config</text><text x="28" y="503" fill="rgba(255,255,255,0.85)">id</text><rect x="48.4" y="493" width="22" height="14" rx="3" fill="rgba(79,188,252,0.7)" opacity="0.2"></rect><text x="59.4" y="502" fill="rgba(79,188,252,0.7)" font-size="9" font-weight="600" text-anchor="middle">PK</text><text x="244" y="503" fill="rgba(255,255,255,0.4)" text-anchor="end" font-size="11">Int</text><text x="28" y="525" fill="rgba(255,255,255,0.85)">bpm</text><text x="244" y="525" fill="rgba(255,255,255,0.4)" text-anchor="end" font-size="11">Int</text><text x="28" y="547" fill="rgba(255,255,255,0.85)">key</text><text x="244" y="547" fill="rgba(255,255,255,0.4)" text-anchor="end" font-size="11">String</text><text x="28" y="569" fill="rgba(255,255,255,0.85)">groove</text><text x="244" y="569" fill="rgba(255,255,255,0.4)" text-anchor="end" font-size="11">String</text><text x="28" y="591" fill="rgba(255,255,255,0.85)">timeSignatureTop</text><text x="244" y="591" fill="rgba(255,255,255,0.4)" text-anchor="end" font-size="11">Int</text><text x="28" y="613" fill="rgba(255,255,255,0.85)">timeSignatureBottom</text><text x="244" y="613" fill="rgba(255,255,255,0.4)" text-anchor="end" font-size="11">Int</text><rect x="336" y="456" width="240" height="114" rx="8" fill="rgba(22,22,22,1)" stroke="rgba(255,255,255,0.1)" stroke-width="1"></rect><rect x="336" y="456" width="240" height="32" rx="8" fill="rgba(154,124,255,0.12)"></rect><rect x="336" y="484" width="240" height="4" fill="rgba(154,124,255,0.12)"></rect><text x="348" y="477" fill="rgba(255,255,255,1)" font-weight="600" font-size="13">ExerciseSavesUserConfig</text><text x="348" y="503" fill="rgba(154,124,255,0.9)">userId</text><rect x="397.2" y="493" width="22" height="14" rx="3" fill="rgba(154,124,255,0.7)" opacity="0.2"></rect><text x="408.2" y="502" fill="rgba(154,124,255,0.7)" font-size="9" font-weight="600" text-anchor="middle">FK</text><text x="564" y="503" fill="rgba(255,255,255,0.4)" text-anchor="end" font-size="11">Int</text><text x="348" y="525" fill="rgba(154,124,255,0.9)">exerciseId</text><rect x="426" y="515" width="22" height="14" rx="3" fill="rgba(154,124,255,0.7)" opacity="0.2"></rect><text x="437" y="524" fill="rgba(154,124,255,0.7)" font-size="9" font-weight="600" text-anchor="middle">FK</text><text x="564" y="525" fill="rgba(255,255,255,0.4)" text-anchor="end" font-size="11">Int</text><text x="348" y="547" fill="rgba(154,124,255,0.9)">configId</text><rect x="411.6" y="537" width="22" height="14" rx="3" fill="rgba(79,188,252,0.7)" opacity="0.2"></rect><text x="422.6" y="546" fill="rgba(79,188,252,0.7)" font-size="9" font-weight="600" text-anchor="middle">PK</text><rect x="439.6" y="537" width="22" height="14" rx="3" fill="rgba(154,124,255,0.7)" opacity="0.2"></rect><text x="450.6" y="546" fill="rgba(154,124,255,0.7)" font-size="9" font-weight="600" text-anchor="middle">FK</text><text x="564" y="547" fill="rgba(255,255,255,0.4)" text-anchor="end" font-size="11">Int</text><rect x="656" y="456" width="240" height="114" rx="8" fill="rgba(22,22,22,1)" stroke="rgba(255,255,255,0.1)" stroke-width="1"></rect><rect x="656" y="456" width="240" height="32" rx="8" fill="rgba(154,124,255,0.12)"></rect><rect x="656" y="484" width="240" height="4" fill="rgba(154,124,255,0.12)"></rect><text x="668" y="477" fill="rgba(255,255,255,1)" font-weight="600" font-size="13">Midifile</text><text x="668" y="503" fill="rgba(255,255,255,0.85)">id</text><rect x="688.4" y="493" width="22" height="14" rx="3" fill="rgba(79,188,252,0.7)" opacity="0.2"></rect><text x="699.4" y="502" fill="rgba(79,188,252,0.7)" font-size="9" font-weight="600" text-anchor="middle">PK</text><text x="884" y="503" fill="rgba(255,255,255,0.4)" text-anchor="end" font-size="11">Int</text><text x="668" y="525" fill="rgba(255,255,255,0.85)">url</text><text x="884" y="525" fill="rgba(255,255,255,0.4)" text-anchor="end" font-size="11">String</text><text x="668" y="547" fill="rgba(154,124,255,0.9)">configId</text><rect x="731.6" y="537" width="22" height="14" rx="3" fill="rgba(154,124,255,0.7)" opacity="0.2"></rect><text x="742.6" y="546" fill="rgba(154,124,255,0.7)" font-size="9" font-weight="600" text-anchor="middle">FK</text><text x="884" y="547" fill="rgba(255,255,255,0.4)" text-anchor="end" font-size="11">Int</text><rect x="16" y="676" width="240" height="92" rx="8" fill="rgba(22,22,22,1)" stroke="rgba(255,255,255,0.1)" stroke-width="1"></rect><rect x="16" y="676" width="240" height="32" rx="8" fill="rgba(154,124,255,0.12)"></rect><rect x="16" y="704" width="240" height="4" fill="rgba(154,124,255,0.12)"></rect><text x="28" y="697" fill="rgba(255,255,255,1)" font-weight="600" font-size="13">ChordsGrid</text><text x="28" y="723" fill="rgba(255,255,255,0.85)">id</text><rect x="48.4" y="713" width="22" height="14" rx="3" fill="rgba(79,188,252,0.7)" opacity="0.2"></rect><text x="59.4" y="722" fill="rgba(79,188,252,0.7)" font-size="9" font-weight="600" text-anchor="middle">PK</text><text x="244" y="723" fill="rgba(255,255,255,0.4)" text-anchor="end" font-size="11">Int</text><text x="28" y="745" fill="rgba(154,124,255,0.9)">exerciseId</text><rect x="106" y="735" width="22" height="14" rx="3" fill="rgba(154,124,255,0.7)" opacity="0.2"></rect><text x="117" y="744" fill="rgba(154,124,255,0.7)" font-size="9" font-weight="600" text-anchor="middle">FK</text><text x="244" y="745" fill="rgba(255,255,255,0.4)" text-anchor="end" font-size="11">Int</text><rect x="336" y="676" width="240" height="158" rx="8" fill="rgba(22,22,22,1)" stroke="rgba(255,255,255,0.1)" stroke-width="1"></rect><rect x="336" y="676" width="240" height="32" rx="8" fill="rgba(154,124,255,0.12)"></rect><rect x="336" y="704" width="240" height="4" fill="rgba(154,124,255,0.12)"></rect><text x="348" y="697" fill="rgba(255,255,255,1)" font-weight="600" font-size="13">Section</text><text x="348" y="723" fill="rgba(255,255,255,0.85)">id</text><rect x="368.4" y="713" width="22" height="14" rx="3" fill="rgba(79,188,252,0.7)" opacity="0.2"></rect><text x="379.4" y="722" fill="rgba(79,188,252,0.7)" font-size="9" font-weight="600" text-anchor="middle">PK</text><text x="564" y="723" fill="rgba(255,255,255,0.4)" text-anchor="end" font-size="11">Int</text><text x="348" y="745" fill="rgba(255,255,255,0.85)">index</text><text x="564" y="745" fill="rgba(255,255,255,0.4)" text-anchor="end" font-size="11">Int</text><text x="348" y="767" fill="rgba(255,255,255,0.85)">type</text><text x="564" y="767" fill="rgba(255,255,255,0.4)" text-anchor="end" font-size="11">SectionType</text><text x="348" y="789" fill="rgba(255,255,255,0.85)">label</text><text x="564" y="789" fill="rgba(255,255,255,0.4)" text-anchor="end" font-size="11">String</text><text x="348" y="811" fill="rgba(154,124,255,0.9)">chordsGridId</text><rect x="440.4" y="801" width="22" height="14" rx="3" fill="rgba(154,124,255,0.7)" opacity="0.2"></rect><text x="451.4" y="810" fill="rgba(154,124,255,0.7)" font-size="9" font-weight="600" text-anchor="middle">FK</text><text x="564" y="811" fill="rgba(255,255,255,0.4)" text-anchor="end" font-size="11">Int</text><rect x="656" y="676" width="240" height="158" rx="8" fill="rgba(22,22,22,1)" stroke="rgba(255,255,255,0.1)" stroke-width="1"></rect><rect x="656" y="676" width="240" height="32" rx="8" fill="rgba(154,124,255,0.12)"></rect><rect x="656" y="704" width="240" height="4" fill="rgba(154,124,255,0.12)"></rect><text x="668" y="697" fill="rgba(255,255,255,1)" font-weight="600" font-size="13">Measure</text><text x="668" y="723" fill="rgba(255,255,255,0.85)">id</text><rect x="688.4" y="713" width="22" height="14" rx="3" fill="rgba(79,188,252,0.7)" opacity="0.2"></rect><text x="699.4" y="722" fill="rgba(79,188,252,0.7)" font-size="9" font-weight="600" text-anchor="middle">PK</text><text x="884" y="723" fill="rgba(255,255,255,0.4)" text-anchor="end" font-size="11">Int</text><text x="668" y="745" fill="rgba(255,255,255,0.85)">index</text><text x="884" y="745" fill="rgba(255,255,255,0.4)" text-anchor="end" font-size="11">Int</text><text x="668" y="767" fill="rgba(154,124,255,0.9)">sectionId</text><rect x="738.8" y="757" width="22" height="14" rx="3" fill="rgba(154,124,255,0.7)" opacity="0.2"></rect><text x="749.8" y="766" fill="rgba(154,124,255,0.7)" font-size="9" font-weight="600" text-anchor="middle">FK</text><text x="884" y="767" fill="rgba(255,255,255,0.4)" text-anchor="end" font-size="11">Int?</text><text x="668" y="789" fill="rgba(154,124,255,0.9)">voltaId</text><rect x="724.4" y="779" width="22" height="14" rx="3" fill="rgba(154,124,255,0.7)" opacity="0.2"></rect><text x="735.4" y="788" fill="rgba(154,124,255,0.7)" font-size="9" font-weight="600" text-anchor="middle">FK</text><text x="884" y="789" fill="rgba(255,255,255,0.4)" text-anchor="end" font-size="11">Int?</text><text x="668" y="811" fill="rgba(154,124,255,0.9)">barsId</text><rect x="717.2" y="801" width="22" height="14" rx="3" fill="rgba(154,124,255,0.7)" opacity="0.2"></rect><text x="728.2" y="810" fill="rgba(154,124,255,0.7)" font-size="9" font-weight="600" text-anchor="middle">FK</text><text x="884" y="811" fill="rgba(255,255,255,0.4)" text-anchor="end" font-size="11">Int</text><rect x="16" y="874" width="240" height="114" rx="8" fill="rgba(22,22,22,1)" stroke="rgba(255,255,255,0.1)" stroke-width="1"></rect><rect x="16" y="874" width="240" height="32" rx="8" fill="rgba(154,124,255,0.12)"></rect><rect x="16" y="902" width="240" height="4" fill="rgba(154,124,255,0.12)"></rect><text x="28" y="895" fill="rgba(255,255,255,1)" font-weight="600" font-size="13">VoltaBracket</text><text x="28" y="921" fill="rgba(255,255,255,0.85)">id</text><rect x="48.4" y="911" width="22" height="14" rx="3" fill="rgba(79,188,252,0.7)" opacity="0.2"></rect><text x="59.4" y="920" fill="rgba(79,188,252,0.7)" font-size="9" font-weight="600" text-anchor="middle">PK</text><text x="244" y="921" fill="rgba(255,255,255,0.4)" text-anchor="end" font-size="11">Int</text><text x="28" y="943" fill="rgba(255,255,255,0.85)">index</text><text x="244" y="943" fill="rgba(255,255,255,0.4)" text-anchor="end" font-size="11">Int</text><text x="28" y="965" fill="rgba(154,124,255,0.9)">sectionId</text><rect x="98.8" y="955" width="22" height="14" rx="3" fill="rgba(154,124,255,0.7)" opacity="0.2"></rect><text x="109.8" y="964" fill="rgba(154,124,255,0.7)" font-size="9" font-weight="600" text-anchor="middle">FK</text><text x="244" y="965" fill="rgba(255,255,255,0.4)" text-anchor="end" font-size="11">Int</text><rect x="336" y="874" width="240" height="224" rx="8" fill="rgba(22,22,22,1)" stroke="rgba(255,255,255,0.1)" stroke-width="1"></rect><rect x="336" y="874" width="240" height="32" rx="8" fill="rgba(154,124,255,0.12)"></rect><rect x="336" y="902" width="240" height="4" fill="rgba(154,124,255,0.12)"></rect><text x="348" y="895" fill="rgba(255,255,255,1)" font-weight="600" font-size="13">Cell</text><text x="348" y="921" fill="rgba(255,255,255,0.85)">id</text><rect x="368.4" y="911" width="22" height="14" rx="3" fill="rgba(79,188,252,0.7)" opacity="0.2"></rect><text x="379.4" y="920" fill="rgba(79,188,252,0.7)" font-size="9" font-weight="600" text-anchor="middle">PK</text><text x="564" y="921" fill="rgba(255,255,255,0.4)" text-anchor="end" font-size="11">Int</text><text x="348" y="943" fill="rgba(255,255,255,0.85)">index</text><text x="564" y="943" fill="rgba(255,255,255,0.4)" text-anchor="end" font-size="11">Int</text><text x="348" y="965" fill="rgba(255,255,255,0.85)">kind</text><text x="564" y="965" fill="rgba(255,255,255,0.4)" text-anchor="end" font-size="11">CellKind</text><text x="348" y="987" fill="rgba(255,255,255,0.85)">keychange</text><text x="564" y="987" fill="rgba(255,255,255,0.4)" text-anchor="end" font-size="11">String?</text><text x="348" y="1009" fill="rgba(154,124,255,0.9)">measureId</text><rect x="418.8" y="999" width="22" height="14" rx="3" fill="rgba(154,124,255,0.7)" opacity="0.2"></rect><text x="429.8" y="1008" fill="rgba(154,124,255,0.7)" font-size="9" font-weight="600" text-anchor="middle">FK</text><text x="564" y="1009" fill="rgba(255,255,255,0.4)" text-anchor="end" font-size="11">Int</text><text x="348" y="1031" fill="rgba(154,124,255,0.9)">chordId</text><rect x="404.4" y="1021" width="22" height="14" rx="3" fill="rgba(154,124,255,0.7)" opacity="0.2"></rect><text x="415.4" y="1030" fill="rgba(154,124,255,0.7)" font-size="9" font-weight="600" text-anchor="middle">FK</text><text x="564" y="1031" fill="rgba(255,255,255,0.4)" text-anchor="end" font-size="11">Int?</text><text x="348" y="1053" fill="rgba(255,255,255,0.85)">timeSignatureChangeTop</text><text x="564" y="1053" fill="rgba(255,255,255,0.4)" text-anchor="end" font-size="11">Int?</text><text x="348" y="1075" fill="rgba(255,255,255,0.85)">timeSignatureChangeBottom</text><text x="564" y="1075" fill="rgba(255,255,255,0.4)" text-anchor="end" font-size="11">Int?</text><rect x="656" y="874" width="240" height="158" rx="8" fill="rgba(22,22,22,1)" stroke="rgba(255,255,255,0.1)" stroke-width="1"></rect><rect x="656" y="874" width="240" height="32" rx="8" fill="rgba(154,124,255,0.12)"></rect><rect x="656" y="902" width="240" height="4" fill="rgba(154,124,255,0.12)"></rect><text x="668" y="895" fill="rgba(255,255,255,1)" font-weight="600" font-size="13">Chord</text><text x="668" y="921" fill="rgba(255,255,255,0.85)">id</text><rect x="688.4" y="911" width="22" height="14" rx="3" fill="rgba(79,188,252,0.7)" opacity="0.2"></rect><text x="699.4" y="920" fill="rgba(79,188,252,0.7)" font-size="9" font-weight="600" text-anchor="middle">PK</text><text x="884" y="921" fill="rgba(255,255,255,0.4)" text-anchor="end" font-size="11">Int</text><text x="668" y="943" fill="rgba(255,255,255,0.85)">note</text><text x="884" y="943" fill="rgba(255,255,255,0.4)" text-anchor="end" font-size="11">String</text><text x="668" y="965" fill="rgba(255,255,255,0.85)">modifier</text><text x="884" y="965" fill="rgba(255,255,255,0.4)" text-anchor="end" font-size="11">String</text><text x="668" y="987" fill="rgba(255,255,255,0.85)">overId</text><text x="884" y="987" fill="rgba(255,255,255,0.4)" text-anchor="end" font-size="11">Int?</text><text x="668" y="1009" fill="rgba(255,255,255,0.85)">altId</text><text x="884" y="1009" fill="rgba(255,255,255,0.4)" text-anchor="end" font-size="11">Int?</text><rect x="16" y="1138" width="240" height="114" rx="8" fill="rgba(22,22,22,1)" stroke="rgba(255,255,255,0.1)" stroke-width="1"></rect><rect x="16" y="1138" width="240" height="32" rx="8" fill="rgba(154,124,255,0.12)"></rect><rect x="16" y="1166" width="240" height="4" fill="rgba(154,124,255,0.12)"></rect><text x="28" y="1159" fill="rgba(255,255,255,1)" font-weight="600" font-size="13">Bar</text><text x="28" y="1185" fill="rgba(255,255,255,0.85)">id</text><rect x="48.4" y="1175" width="22" height="14" rx="3" fill="rgba(79,188,252,0.7)" opacity="0.2"></rect><text x="59.4" y="1184" fill="rgba(79,188,252,0.7)" font-size="9" font-weight="600" text-anchor="middle">PK</text><text x="244" y="1185" fill="rgba(255,255,255,0.4)" text-anchor="end" font-size="11">Int</text><text x="28" y="1207" fill="rgba(255,255,255,0.85)">left</text><text x="244" y="1207" fill="rgba(255,255,255,0.4)" text-anchor="end" font-size="11">LeftBarKind?</text><text x="28" y="1229" fill="rgba(255,255,255,0.85)">right</text><text x="244" y="1229" fill="rgba(255,255,255,0.4)" text-anchor="end" font-size="11">RightBarKind?</text><rect x="336" y="1138" width="240" height="136" rx="8" fill="rgba(22,22,22,1)" stroke="rgba(255,255,255,0.1)" stroke-width="1"></rect><rect x="336" y="1138" width="240" height="32" rx="8" fill="rgba(154,124,255,0.12)"></rect><rect x="336" y="1166" width="240" height="4" fill="rgba(154,124,255,0.12)"></rect><text x="348" y="1159" fill="rgba(255,255,255,1)" font-weight="600" font-size="13">Image</text><text x="348" y="1185" fill="rgba(255,255,255,0.85)">id</text><rect x="368.4" y="1175" width="22" height="14" rx="3" fill="rgba(79,188,252,0.7)" opacity="0.2"></rect><text x="379.4" y="1184" fill="rgba(79,188,252,0.7)" font-size="9" font-weight="600" text-anchor="middle">PK</text><text x="564" y="1185" fill="rgba(255,255,255,0.4)" text-anchor="end" font-size="11">Int</text><text x="348" y="1207" fill="rgba(255,255,255,0.85)">url</text><text x="564" y="1207" fill="rgba(255,255,255,0.4)" text-anchor="end" font-size="11">String</text><text x="348" y="1229" fill="rgba(255,255,255,0.85)">alt</text><text x="564" y="1229" fill="rgba(255,255,255,0.4)" text-anchor="end" font-size="11">String</text><text x="348" y="1251" fill="rgba(255,255,255,0.85)">cloudId</text><text x="564" y="1251" fill="rgba(255,255,255,0.4)" text-anchor="end" font-size="11">String?</text><rect x="656" y="1138" width="240" height="224" rx="8" fill="rgba(22,22,22,1)" stroke="rgba(255,255,255,0.1)" stroke-width="1"></rect><rect x="656" y="1138" width="240" height="32" rx="8" fill="rgba(154,124,255,0.12)"></rect><rect x="656" y="1166" width="240" height="4" fill="rgba(154,124,255,0.12)"></rect><text x="668" y="1159" fill="rgba(255,255,255,1)" font-weight="600" font-size="13">Playlist</text><text x="668" y="1185" fill="rgba(255,255,255,0.85)">id</text><rect x="688.4" y="1175" width="22" height="14" rx="3" fill="rgba(79,188,252,0.7)" opacity="0.2"></rect><text x="699.4" y="1184" fill="rgba(79,188,252,0.7)" font-size="9" font-weight="600" text-anchor="middle">PK</text><text x="884" y="1185" fill="rgba(255,255,255,0.4)" text-anchor="end" font-size="11">Int</text><text x="668" y="1207" fill="rgba(255,255,255,0.85)">title</text><text x="884" y="1207" fill="rgba(255,255,255,0.4)" text-anchor="end" font-size="11">String</text><text x="668" y="1229" fill="rgba(255,255,255,0.85)">description</text><text x="884" y="1229" fill="rgba(255,255,255,0.4)" text-anchor="end" font-size="11">String?</text><text x="668" y="1251" fill="rgba(255,255,255,0.85)">visibility</text><text x="884" y="1251" fill="rgba(255,255,255,0.4)" text-anchor="end" font-size="11">Visibility</text><text x="668" y="1273" fill="rgba(154,124,255,0.9)">imageId</text><rect x="724.4" y="1263" width="22" height="14" rx="3" fill="rgba(154,124,255,0.7)" opacity="0.2"></rect><text x="735.4" y="1272" fill="rgba(154,124,255,0.7)" font-size="9" font-weight="600" text-anchor="middle">FK</text><text x="884" y="1273" fill="rgba(255,255,255,0.4)" text-anchor="end" font-size="11">Int</text><text x="668" y="1295" fill="rgba(255,255,255,0.85)">createdAt</text><text x="884" y="1295" fill="rgba(255,255,255,0.4)" text-anchor="end" font-size="11">DateTime</text><text x="668" y="1317" fill="rgba(255,255,255,0.85)">updatedAt</text><text x="884" y="1317" fill="rgba(255,255,255,0.4)" text-anchor="end" font-size="11">DateTime</text><text x="668" y="1339" fill="rgba(154,124,255,0.9)">authorId</text><rect x="731.6" y="1329" width="22" height="14" rx="3" fill="rgba(154,124,255,0.7)" opacity="0.2"></rect><text x="742.6" y="1338" fill="rgba(154,124,255,0.7)" font-size="9" font-weight="600" text-anchor="middle">FK</text><text x="884" y="1339" fill="rgba(255,255,255,0.4)" text-anchor="end" font-size="11">Int</text><rect x="16" y="1402" width="240" height="92" rx="8" fill="rgba(22,22,22,1)" stroke="rgba(255,255,255,0.1)" stroke-width="1"></rect><rect x="16" y="1402" width="240" height="32" rx="8" fill="rgba(154,124,255,0.12)"></rect><rect x="16" y="1430" width="240" height="4" fill="rgba(154,124,255,0.12)"></rect><text x="28" y="1423" fill="rgba(255,255,255,1)" font-weight="600" font-size="13">PlaylistIncludesExercise</text><text x="28" y="1449" fill="rgba(154,124,255,0.9)">exerciseId</text><rect x="106" y="1439" width="22" height="14" rx="3" fill="rgba(79,188,252,0.7)" opacity="0.2"></rect><text x="117" y="1448" fill="rgba(79,188,252,0.7)" font-size="9" font-weight="600" text-anchor="middle">PK</text><rect x="134" y="1439" width="22" height="14" rx="3" fill="rgba(154,124,255,0.7)" opacity="0.2"></rect><text x="145" y="1448" fill="rgba(154,124,255,0.7)" font-size="9" font-weight="600" text-anchor="middle">FK</text><text x="244" y="1449" fill="rgba(255,255,255,0.4)" text-anchor="end" font-size="11">Int</text><text x="28" y="1471" fill="rgba(154,124,255,0.9)">playlistId</text><rect x="106" y="1461" width="22" height="14" rx="3" fill="rgba(79,188,252,0.7)" opacity="0.2"></rect><text x="117" y="1470" fill="rgba(79,188,252,0.7)" font-size="9" font-weight="600" text-anchor="middle">PK</text><rect x="134" y="1461" width="22" height="14" rx="3" fill="rgba(154,124,255,0.7)" opacity="0.2"></rect><text x="145" y="1470" fill="rgba(154,124,255,0.7)" font-size="9" font-weight="600" text-anchor="middle">FK</text><text x="244" y="1471" fill="rgba(255,255,255,0.4)" text-anchor="end" font-size="11">Int</text><rect x="336" y="1402" width="240" height="114" rx="8" fill="rgba(22,22,22,1)" stroke="rgba(255,255,255,0.1)" stroke-width="1"></rect><rect x="336" y="1402" width="240" height="32" rx="8" fill="rgba(154,124,255,0.12)"></rect><rect x="336" y="1430" width="240" height="4" fill="rgba(154,124,255,0.12)"></rect><text x="348" y="1423" fill="rgba(255,255,255,1)" font-weight="600" font-size="13">PlaylistTag</text><text x="348" y="1449" fill="rgba(255,255,255,0.85)">id</text><rect x="368.4" y="1439" width="22" height="14" rx="3" fill="rgba(79,188,252,0.7)" opacity="0.2"></rect><text x="379.4" y="1448" fill="rgba(79,188,252,0.7)" font-size="9" font-weight="600" text-anchor="middle">PK</text><text x="564" y="1449" fill="rgba(255,255,255,0.4)" text-anchor="end" font-size="11">Int</text><text x="348" y="1471" fill="rgba(255,255,255,0.85)">label</text><text x="564" y="1471" fill="rgba(255,255,255,0.4)" text-anchor="end" font-size="11">String</text><text x="348" y="1493" fill="rgba(154,124,255,0.9)">playlistId</text><rect x="426" y="1483" width="22" height="14" rx="3" fill="rgba(154,124,255,0.7)" opacity="0.2"></rect><text x="437" y="1492" fill="rgba(154,124,255,0.7)" font-size="9" font-weight="600" text-anchor="middle">FK</text><text x="564" y="1493" fill="rgba(255,255,255,0.4)" text-anchor="end" font-size="11">Int</text><rect x="656" y="1402" width="240" height="114" rx="8" fill="rgba(22,22,22,1)" stroke="rgba(255,255,255,0.1)" stroke-width="1"></rect><rect x="656" y="1402" width="240" height="32" rx="8" fill="rgba(154,124,255,0.12)"></rect><rect x="656" y="1430" width="240" height="4" fill="rgba(154,124,255,0.12)"></rect><text x="668" y="1423" fill="rgba(255,255,255,1)" font-weight="600" font-size="13">UserLikesPlaylist</text><text x="668" y="1449" fill="rgba(154,124,255,0.9)">userId</text><rect x="717.2" y="1439" width="22" height="14" rx="3" fill="rgba(79,188,252,0.7)" opacity="0.2"></rect><text x="728.2" y="1448" fill="rgba(79,188,252,0.7)" font-size="9" font-weight="600" text-anchor="middle">PK</text><rect x="745.2" y="1439" width="22" height="14" rx="3" fill="rgba(154,124,255,0.7)" opacity="0.2"></rect><text x="756.2" y="1448" fill="rgba(154,124,255,0.7)" font-size="9" font-weight="600" text-anchor="middle">FK</text><text x="884" y="1449" fill="rgba(255,255,255,0.4)" text-anchor="end" font-size="11">Int</text><text x="668" y="1471" fill="rgba(154,124,255,0.9)">playlistId</text><rect x="746" y="1461" width="22" height="14" rx="3" fill="rgba(79,188,252,0.7)" opacity="0.2"></rect><text x="757" y="1470" fill="rgba(79,188,252,0.7)" font-size="9" font-weight="600" text-anchor="middle">PK</text><rect x="774" y="1461" width="22" height="14" rx="3" fill="rgba(154,124,255,0.7)" opacity="0.2"></rect><text x="785" y="1470" fill="rgba(154,124,255,0.7)" font-size="9" font-weight="600" text-anchor="middle">FK</text><text x="884" y="1471" fill="rgba(255,255,255,0.4)" text-anchor="end" font-size="11">Int</text><text x="668" y="1493" fill="rgba(255,255,255,0.85)">likedAt</text><text x="884" y="1493" fill="rgba(255,255,255,0.4)" text-anchor="end" font-size="11">DateTime</text></svg>