<svg width="141" height="24" viewBox="0 0 141 24" fill="none" xmlns="http://www.w3.org/2000/svg">
<path d="M2.784 20.048L2.136 20H1.488L1.152 19.976L1.056 19.904L0.936 19.76V19.592L0.96 19.232L0.984 19.088L0.936 18.872L1.008 18.656L1.032 18.488L1.056 18.176L1.128 17.912L1.176 17.624L1.224 17.456L1.296 17.12L1.32 16.928V16.76L1.392 16.592L1.416 16.4L1.44 16.064L1.512 15.728L1.56 15.536L1.584 15.344L1.608 15.2L1.632 14.864L1.68 14.72L1.728 14.36L1.752 13.976L1.848 13.616V13.424L1.896 13.088L2.016 12.608V12.392L2.04 12.248L2.112 11.96L2.088 11.816L2.16 11.6L2.208 11.408L2.256 11.12L2.28 10.832V10.664L2.328 10.52L2.352 10.352L2.4 10.04L2.424 9.896L2.496 9.728L2.568 9.44L2.592 9.128L2.64 8.816L2.688 8.672L2.736 8.336L2.76 8.192L2.808 7.856L2.832 7.664L2.904 7.352L2.952 7.184L3 7.04V6.872L3.024 6.728L3.168 6.008V5.864L3.192 5.552L3.24 5.264L3.312 5L3.336 4.832L3.408 4.52L3.384 4.328L3.432 4.16L3.456 3.896L3.552 3.68V3.512L3.696 3.224L3.936 3.2H4.272L4.728 3.176L5.136 3.2H5.544L5.976 3.176L6.456 3.2H6.768L6.912 3.416L6.984 4.088L7.032 4.256L7.08 4.592L7.104 4.736L7.176 5.072L7.2 5.48L7.272 5.864L7.32 6.176L7.344 6.512L7.392 6.68V6.872L7.488 7.376L7.512 7.52L7.56 7.856V8.024L7.584 8.192L7.656 8.336L7.68 8.648V8.792L7.704 9.104L7.776 9.44V9.608L7.848 9.944L7.944 10.76L8.04 11.096V11.24L8.064 11.408V11.576L8.112 11.72L8.16 12.032L8.256 12.488H8.328L8.64 11.888L8.712 11.768L8.808 11.624L9 11.24L9.072 11.072L9.24 10.736L9.384 10.496L9.552 10.28V10.136L9.72 9.776L9.864 9.56L9.96 9.32L10.128 9.008L10.272 8.864L10.368 8.576L10.584 8.264L10.68 8.12L10.704 7.976L10.944 7.616L11.424 6.656L11.52 6.512L11.856 5.84L12 5.528L12.192 5.192L12.36 4.928L12.504 4.64L12.6 4.496L12.672 4.376L12.72 4.28L12.744 4.136L12.84 3.992L12.96 3.704L13.128 3.464L13.248 3.224L13.824 3.176L14.4 3.2L14.784 3.176L15.6 3.224L16.08 3.2L16.296 3.344L16.344 3.512L16.272 3.824L16.224 3.968L16.2 4.304L16.176 4.4L16.152 4.568L16.128 4.712L16.104 4.88L16.08 4.952V5.288L16.032 5.432L16.008 5.6L15.888 5.912V6.104L15.816 6.44L15.768 6.584L15.744 6.872L15.768 7.016L15.672 7.184V7.592L15.6 7.736L15.48 8.048L15.456 8.192L15.408 8.528L15.384 8.912L15.288 9.104L15.264 9.32V9.464L15.24 9.632L15.192 9.776L15.12 10.088L15.072 10.424L15 10.712L14.976 10.856L14.952 11.024L14.88 11.312L14.856 11.576L14.832 11.936L14.736 12.104V12.272L14.76 12.44L14.736 12.584L14.712 12.752L14.688 12.896L14.616 13.208L14.496 13.376L14.568 13.568L14.52 13.928L14.448 14.264V14.408L14.4 14.72L14.28 15.08L14.256 15.248L14.184 15.608L14.16 15.776L14.136 15.968L14.088 16.304L14.04 16.448L13.992 16.784L13.968 16.976L13.896 17.288L13.872 17.456L13.824 17.6L13.8 17.912L13.776 18.08V18.248L13.704 18.56L13.68 18.752L13.608 19.088L13.536 19.4L13.488 19.712L13.416 19.928L13.08 20.024H12.816L12.096 20H11.04L10.704 20.024L10.584 20H10.416L10.248 19.88L10.2 19.616L10.176 19.448L10.2 19.304L10.272 18.968L10.296 18.8L10.344 18.44L10.392 18.248L10.44 17.912L10.488 17.552L10.56 17.216L10.656 16.904L10.68 16.592L10.776 16.304L10.848 15.992V15.656L10.896 15.344L10.968 15.176L10.992 14.888L11.016 14.744L11.04 14.576L11.112 14.312L11.136 14.144V14L11.184 13.832L11.376 12.896L11.448 12.464L11.52 12.128L11.544 11.984L11.592 11.816L11.688 11.24H11.616L10.896 12.656L10.344 13.88L10.032 14.6L9.504 15.584L8.856 17L8.688 17.288L8.568 17.528L8.304 17.576H8.16L7.944 17.528L7.416 17.576L6.96 17.504L6.744 17.48L6.456 17.336L6.432 17.168L6.312 16.76L6.288 16.568L6.24 16.4L6.216 16.208L6.192 16.04L6.144 15.872L6.096 15.464L6.048 14.96L6 14.816L5.928 14.48L5.88 14.168L5.736 13.16L5.688 12.656L5.64 12.296L5.616 12.128L5.592 11.984L5.496 10.88H5.4L5.28 11.864V12.152L5.184 12.536L5.088 13.424L5.064 13.592L5.016 13.736V14.192L4.992 14.36L4.944 14.672L4.92 14.816L4.872 14.984L4.824 15.32L4.776 15.608V15.776L4.752 16.112L4.704 16.448V16.592L4.608 16.88L4.584 17.072L4.56 17.288L4.512 17.672L4.464 18.008L4.44 18.152L4.368 18.44V18.752L4.344 19.064L4.272 19.232L4.248 19.376L4.224 19.616L4.08 19.88L3.792 20H3.072L2.952 20.024L2.784 20.048ZM20.7236 20.144L19.7396 20.024L19.5716 19.976L19.4756 19.928L19.0676 19.784L18.8996 19.712L18.7556 19.64L18.2756 19.352L18.0356 19.112L17.8916 18.944L17.7716 18.8L17.6516 18.608L17.6276 18.536L17.4356 18.152L17.2436 17.816L17.1476 17.432L17.1236 17.096L17.0276 16.28L17.0516 16.136L17.0756 15.32L17.1236 15.104L17.2196 14.456L17.2436 14.144L17.2676 13.784L17.3156 13.496L17.3636 13.256V12.944L17.4596 12.656L17.4836 12.488L17.5076 12.344L17.5796 12.056L17.5556 11.888L17.5796 11.72L17.6516 11.432L17.6996 11.264V10.952L17.7956 10.64L17.8196 10.304L17.8916 9.992L17.9876 9.656V9.464L18.0116 9.128L18.0836 8.984L18.1556 8.312L18.2036 8.168L18.2516 7.856V7.688L18.2756 7.544L18.3956 7.232L18.4196 7.064L18.4436 6.872L18.5156 6.536L18.5396 6.344V6.152L18.6116 5.816V5.648L18.6596 5.504L18.7316 4.832L18.8516 4.52L18.8996 4.4L18.9476 4.16L18.9956 3.824L19.0916 3.488L19.1396 3.296L19.2836 3.248L19.6916 3.224H19.8116L20.0276 3.2L21.0356 3.224L21.6116 3.176L21.8276 3.2L22.2116 3.224L22.4276 3.392L22.4516 3.752V4.088L22.4036 4.232L22.3556 4.4L22.3796 4.736L22.3316 4.904L22.2836 5.12L22.2356 5.312L22.2116 5.48L22.1636 5.624V5.792L22.0676 6.08L22.0196 6.392L21.9956 6.584V6.824L21.9716 6.992L21.8516 7.328L21.8276 7.52L21.7556 7.88L21.7076 8.24L21.6836 8.384L21.6116 8.552L21.5876 8.792L21.5636 8.96L21.5156 9.152V9.32L21.3956 9.656L21.3716 9.8L21.4196 10.112L21.3236 10.328L21.2996 10.544L21.2756 10.736L21.2276 10.904L21.1796 11.048L21.1076 11.336V11.648L21.0116 11.96L20.9636 12.248L20.8436 13.112L20.7716 13.592L20.7476 13.928L20.6756 14.24L20.6036 14.816L20.5796 15.032L20.5556 15.176L20.5316 15.344L20.5556 15.728V15.992L20.5796 16.28L20.8436 16.592L21.1076 16.664L21.6116 16.736L22.1636 16.664L22.4036 16.472L22.5476 16.28L22.6196 16.136L22.7876 15.752L22.9076 15.512L22.9556 15.296L23.0036 15.152L23.1236 14.672L23.1956 14.336L23.2436 14.168L23.2676 13.928L23.3156 13.784L23.3636 13.568L23.3876 13.352L23.4356 13.184L23.4836 12.992L23.5076 12.824L23.5556 12.512L23.6036 12.272L23.6996 11.84L23.7236 11.552L23.7716 11.384L23.8916 11.048V10.856L23.9396 10.544L24.0116 10.232L24.0596 9.944L24.1556 9.608L24.1796 9.416L24.2756 9.08V8.888L24.3236 8.552L24.3476 8.432V8.096L24.4916 7.856L24.4676 7.592L24.5636 7.256L24.5876 7.064L24.6356 6.728L24.6596 6.536L24.7316 6.2L24.7796 5.864L24.8276 5.552L24.8036 5.384L24.9236 5.12L24.9476 4.976L24.9716 4.688L24.9956 4.544L25.0676 4.232L25.1396 3.896L25.2116 3.584L25.2356 3.392L25.3076 3.224L26.0276 3.2H26.1956L26.3636 3.224L27.0596 3.2H27.2276L27.3956 3.224H27.5876L27.7556 3.2L27.9956 3.224L28.1636 3.2L28.3796 3.176L28.5716 3.2L28.7636 3.392L28.7876 3.752L28.6436 4.088L28.6196 4.448L28.5716 4.64L28.5236 4.976L28.4996 5.168L28.4036 5.504L28.3796 5.672L28.3316 5.864L28.3076 6.032L28.2116 6.344L28.2356 6.488L28.1396 6.776V6.92L28.0676 7.184L28.0196 7.4L27.9476 7.616L27.8996 7.832L27.8276 8.12V8.288L27.7796 8.456L27.7556 8.6L27.7076 8.768L27.7316 8.936L27.5636 9.464L27.4916 9.824V9.968L27.4196 10.304L27.3956 10.448L27.3476 10.784L27.3236 11.12L27.2276 11.456V11.624L27.1796 11.96L27.0836 12.152L27.0596 12.464L27.0116 12.752L26.9396 13.064L26.8436 13.4L26.8196 13.568L26.7476 13.904V13.952L26.6516 14.24L26.5796 14.552V14.696L26.5316 14.864L26.4596 15.128L26.4116 15.344V15.512L26.3636 15.656L26.3156 15.824L26.2196 16.112L26.1236 16.424L26.0516 16.832L25.9316 16.976L25.8596 17.288L25.6916 17.6L25.5956 17.744L25.4516 18.08L25.3556 18.248L25.2356 18.416L25.1396 18.632L24.9956 18.848L24.7796 19.016L24.5876 19.256L24.3716 19.376L24.1796 19.496L23.8916 19.616L23.7716 19.712L23.3876 19.856L23.2436 19.904L22.9556 19.976L22.7396 20.024L22.5956 20.072L22.1156 20.12H21.5636L21.2036 20.144H20.7236ZM32.4551 20.312L31.8791 20.264L31.7111 20.24H31.4711L31.2071 20.192L30.9671 20.144L30.7991 20.096L30.4151 19.928L30.1511 19.832L29.9111 19.664L29.6231 19.472L29.3831 19.16L29.1431 18.872L28.9271 18.536L28.7591 18.128L28.7111 17.936L28.5431 17.504L28.5191 17.36L28.4471 17.024L28.4231 16.88L28.3751 16.496V15.776L28.3991 15.368L28.3751 15.2L28.4231 14.84L28.4471 14.648L28.4951 14.48L28.5671 14.096L28.9031 13.928L29.4791 13.88L29.7671 13.904H31.1111L31.4231 13.928L31.6151 14.264V15.152L31.5911 15.32V15.824L31.6391 16.352L31.7111 16.592L31.8791 16.952L32.1191 17.192L32.4311 17.264H32.6471L32.8391 17.216L33.1031 17.144L33.2231 17.024L33.3431 16.808L33.4391 16.64L33.5351 16.352L33.5831 16.064L33.6071 15.824V15.656L33.5831 15.32V14.936L33.4871 14.504V14.36L33.4151 14L33.2231 13.664L33.0311 13.376L32.8631 13.04L32.7671 12.896L32.7191 12.776L32.6471 12.656L32.4791 12.488L32.3591 12.296L32.0951 11.984L31.9751 11.864L31.8791 11.72L31.6151 11.408L31.3271 11.096L31.1111 10.784L30.8711 10.52L30.6311 10.328L30.5111 10.16L30.3671 9.92L30.2231 9.56L30.1271 9.344L30.0071 9.176L29.9351 9.008L29.8871 8.816L29.7911 8.504L29.7671 8.192L29.7431 8L29.7671 7.832V7.136L29.8151 6.656L29.8871 6.488L29.9111 6.152L30.0071 5.984L30.0791 5.744L30.1031 5.504L30.2471 5.192L30.3431 5L30.4151 4.832L30.4871 4.712L30.6791 4.496L30.7511 4.4L30.8951 4.16L31.0391 4.016L31.3271 3.776L31.7591 3.464L32.1431 3.32L32.4071 3.176L32.8631 3.08L33.2711 2.96H34.0151L34.6151 2.984H34.7831L34.9991 3.032L35.3591 3.056L35.7671 3.176L35.9351 3.2L36.0311 3.272L36.3191 3.416L36.4871 3.56L36.6791 3.632L36.9431 3.872L37.0151 3.968L37.2551 4.232L37.3271 4.352L37.4951 4.616L37.5911 4.76L37.6391 5.024L37.7111 5.192L37.8551 5.768V6.296L37.8791 6.776L37.8551 7.184L37.7591 7.856L37.6631 8.384L37.3751 8.528L36.9431 8.552H35.5991L35.2631 8.528H34.9271L34.7351 8.36L34.7111 8.048L34.7591 7.856L34.8311 7.112V6.56L34.7831 6.272L34.7111 6.128L34.4951 5.912L34.2551 5.72L33.9431 5.672L33.6551 5.768L33.3911 5.888L33.2711 6.056L33.1991 6.224L33.1031 6.464L33.0791 6.632L33.0071 6.872L32.9831 7.208V7.52L33.0071 7.688L33.1751 8.144L33.3671 8.48L33.4631 8.672L33.6311 8.984L33.8951 9.32L34.2071 9.704L34.3031 9.848L34.4231 9.968L34.5191 10.16L34.6151 10.28L34.7591 10.376L34.9991 10.568L35.0711 10.712L35.1911 10.784L35.2631 10.904L35.4791 11.144L35.5991 11.36L35.8871 11.648L36.0551 12.056L36.2711 12.32L36.2951 12.44L36.4871 12.92L36.6311 13.232L36.7751 13.736L36.7991 13.904L36.8231 14.096L36.8471 14.264L36.9671 14.672L37.0151 14.816L36.9911 15.152L36.9671 15.296L36.9911 15.464L36.9671 15.632V16.304L36.8951 16.64L36.8711 16.784V17.144L36.7751 17.456L36.7271 17.648L36.6791 17.864L36.5591 18.2L36.3431 18.608L36.1991 18.704L36.0791 18.944L35.9591 19.04L35.7671 19.256L35.6471 19.352L35.4551 19.52L35.2151 19.664L34.9991 19.832L34.7111 19.904L34.5671 20L34.2071 20.12L34.0151 20.144L33.7031 20.24L33.5351 20.264L33.3191 20.24L33.1511 20.264H32.8871L32.7191 20.288L32.4551 20.312ZM40.5776 20.048L40.4096 20.024H39.7136L39.3776 19.976H39.1856L39.0176 20L38.7536 19.976L38.5856 19.952L38.3936 19.976L38.2016 19.928L38.0096 19.76L37.9856 19.4L38.1056 19.064L38.1296 18.704L38.1776 18.536L38.2256 18.2L38.2496 18.008L38.3216 17.648L38.3456 17.48L38.3936 17.288L38.4176 17.12L38.5136 16.808L38.4896 16.664L38.5616 16.232L38.6336 15.968L38.6816 15.752L38.7536 15.536L38.8016 15.32L38.8496 15.032V14.864L38.8976 14.696L38.9216 14.552L38.9696 14.384L38.9456 14.216L39.1136 13.688L39.1616 13.328V13.184L39.2096 13.016L39.2336 12.848L39.2576 12.704L39.3056 12.368V12.032L39.4016 11.696V11.528L39.4496 11.192L39.5456 11V10.688L39.5936 10.4L39.6656 10.088L39.7856 9.752L39.8576 9.248V8.912L39.9296 8.744L39.9776 8.408L40.0016 8.264L39.9776 8.096L40.0736 7.808L40.0976 7.664L40.1696 7.352L40.1936 7.184L40.2896 6.872L40.2656 6.704L40.2896 6.512L40.3136 6.2L40.3616 6.08L40.4096 5.744L40.4816 5.432L40.5056 5.288L40.5536 5.144L40.5776 4.856L40.6256 4.592L40.7216 4.328L40.7696 3.968L40.8176 3.824L40.8416 3.656L41.0096 3.416L41.1776 3.344L41.3216 3.248L41.4896 3.224L41.8496 3.2L42.0656 3.224H42.4016L42.5696 3.2H43.8416L44.0096 3.176L44.2736 3.248L44.3696 3.488L44.3456 3.632V3.944L44.2976 4.016L44.2736 4.28L44.2976 4.424L44.2256 4.52V4.736L44.1536 4.856L44.1056 5.192L44.0096 5.408V5.6L43.9856 5.744V5.912L43.9616 6.056L43.8416 6.68L43.7936 6.944L43.7456 7.088L43.6976 7.376L43.6736 7.544L43.6496 7.832L43.6256 8L43.5776 8.312L43.5056 8.6L43.4336 8.912L43.4096 9.032L43.3376 9.368L43.2656 9.584V9.8L43.2416 9.968L43.2176 10.16V10.328L43.1696 10.64L43.0976 10.88L42.9776 11.6L42.8816 11.936L42.8096 12.104V12.296L42.7376 12.608L42.6896 12.92L42.6416 13.208L42.5456 13.544V13.736L42.4496 14.072V14.264L42.4016 14.6L42.3776 14.72V15.056L42.2576 15.296L42.2816 15.56L42.2096 15.92L42.1856 16.112L42.0896 16.424V16.616L42.0176 16.952L41.9696 17.288L41.9216 17.6V17.768L41.8496 18.032L41.7536 18.608L41.6816 18.92L41.6336 19.256L41.5616 19.568L41.5376 19.76L41.4656 19.976L41.2016 20.048H40.5776ZM48.8263 20.288L48.6103 20.264H48.4423L48.2743 20.24L48.0103 20.216L47.8183 20.192L47.6743 20.168L47.4343 20.144L47.2663 20.096L47.1223 20.072L46.8103 19.952L46.5223 19.856L46.3783 19.736L46.1383 19.592L46.0183 19.496L45.8743 19.4L45.5623 19.16L45.4663 19.04L45.3463 18.92L45.1783 18.584L44.9623 18.272L44.8903 17.96L44.8423 17.816L44.7943 17.504L44.7463 17.336V16.88L44.7223 16.688V16.472L44.7463 16.304V15.68L44.7703 15.176L44.7943 14.984L44.8183 14.648L44.8663 14.312V14.144L44.8903 14L44.9383 13.496L45.0343 13.16L45.0103 12.944L45.0583 12.752L45.1303 12.488L45.1063 12.368L45.1783 11.936L45.2743 11.792V11.456L45.2983 11.384V11.288L45.3703 11.024L45.4183 10.76L45.4903 10.52L45.5143 10.232V10.088L45.5863 9.944V9.608L45.7063 9.128L45.7543 8.96L45.8023 8.696L45.8263 8.456L45.8983 8.312L45.9223 8.144L45.9703 7.976L45.9943 7.832L46.0183 7.664L46.0903 7.496L46.1623 7.184L46.3303 6.704L46.4743 6.224L46.5703 5.888L46.7143 5.48L46.8343 5.192L46.9783 4.856L47.0743 4.592L47.2423 4.448L47.4103 4.208L47.6023 3.968L47.9383 3.632L48.0823 3.512L48.3943 3.368L48.5383 3.296L49.0423 3.08L49.4503 3.008L49.7623 2.936L49.9303 2.912H50.2903L50.7463 2.888H51.1303L51.7303 2.96L51.9463 3.032H52.1863L52.5223 3.08L52.6663 3.104L52.8343 3.152L53.0023 3.176L53.0983 3.248L53.3623 3.296L53.6983 3.416L54.0103 3.656L54.2743 3.896L54.3223 4.016L54.4423 4.232L54.5143 4.352L54.5623 4.52L54.6823 4.76L54.7303 5.024L54.7543 5.312L54.7783 5.624L54.8023 5.84L54.8263 6.2V6.728L54.8023 6.968L54.7543 7.16L54.7063 7.52L54.6583 7.904L54.5143 8.84L54.4663 9.032L54.3463 9.656L54.2503 9.752L53.9623 9.776L53.6263 9.8L52.1143 9.776L51.4183 9.68L51.2503 9.416V9.08L51.2983 8.912L51.3943 8.48L51.4423 8.144L51.5863 7.616L51.6103 7.304L51.6583 6.968V6.608L51.5143 6.176L51.2503 6.032L50.9143 5.936H50.6503L50.3623 5.984L50.0983 6.08L49.8823 6.344L49.8103 6.488L49.7383 6.656L49.6423 7.064L49.5223 7.376L49.3783 7.784V7.928L49.2823 8.216L49.2103 8.576L49.1383 8.864L49.0663 9.08L49.0423 9.248L49.0183 9.392L48.9703 9.56L48.9223 9.896L48.8023 10.256L48.6103 11.216L48.5863 11.408L48.4903 11.792L48.4663 11.96L48.4183 12.272L48.3703 12.464L48.2983 12.824V13.328L48.2263 13.496L48.2023 13.664V13.856L48.1783 14.024L48.1303 14.192L48.1543 14.36L48.0823 14.864V15.056L48.0103 15.392L47.9863 15.728V15.968L48.0103 16.112V16.28L48.1063 16.64L48.2983 16.808L48.6583 16.928L49.0423 16.88H49.4023L49.7383 16.664L49.8343 16.544L50.0263 16.112L50.1463 15.776L50.2423 15.464L50.2663 15.32L50.2903 15.2L50.3623 14.912L50.4343 14.552L50.4823 14.336L50.5063 14.168L50.6263 13.856L50.6743 13.616L50.8423 13.424L51.0343 13.4L51.6583 13.424H52.1623L53.3383 13.496L53.6263 13.52L53.7943 13.688L53.8903 13.856V14.12L53.8423 14.264V14.432L53.7943 14.744L53.7703 15.008L53.7223 15.128L53.6983 15.296L53.6743 15.392L53.6023 15.896L53.5543 16.04L53.4103 16.64L53.3383 16.928L53.3143 17.096L53.2663 17.264L53.1943 17.408L53.0503 17.792L52.9303 18.08L52.8583 18.248L52.7623 18.392L52.6423 18.536L52.5703 18.68L52.5223 18.824L52.1623 19.256L51.8023 19.568L51.4183 19.808L51.2503 19.88L50.6263 20.024L50.3383 20.096L50.0503 20.144L49.7383 20.216H49.3783L49.0663 20.24L48.8263 20.288ZM64.1426 20.312L63.5666 20.264L63.3986 20.24H63.1586L62.8946 20.192L62.6546 20.144L62.4866 20.096L62.1026 19.928L61.8386 19.832L61.5986 19.664L61.3106 19.472L61.0706 19.16L60.8306 18.872L60.6146 18.536L60.4466 18.128L60.3986 17.936L60.2306 17.504L60.2066 17.36L60.1346 17.024L60.1106 16.88L60.0626 16.496V15.776L60.0866 15.368L60.0626 15.2L60.1106 14.84L60.1346 14.648L60.1826 14.48L60.2546 14.096L60.5906 13.928L61.1666 13.88L61.4546 13.904H62.7986L63.1106 13.928L63.3026 14.264V15.152L63.2786 15.32V15.824L63.3266 16.352L63.3986 16.592L63.5666 16.952L63.8066 17.192L64.1186 17.264H64.3346L64.5266 17.216L64.7906 17.144L64.9106 17.024L65.0306 16.808L65.1266 16.64L65.2226 16.352L65.2706 16.064L65.2946 15.824V15.656L65.2706 15.32V14.936L65.1746 14.504V14.36L65.1026 14L64.9106 13.664L64.7186 13.376L64.5506 13.04L64.4546 12.896L64.4066 12.776L64.3346 12.656L64.1666 12.488L64.0466 12.296L63.7826 11.984L63.6626 11.864L63.5666 11.72L63.3026 11.408L63.0146 11.096L62.7986 10.784L62.5586 10.52L62.3186 10.328L62.1986 10.16L62.0546 9.92L61.9106 9.56L61.8146 9.344L61.6946 9.176L61.6226 9.008L61.5746 8.816L61.4786 8.504L61.4546 8.192L61.4306 8L61.4546 7.832V7.136L61.5026 6.656L61.5746 6.488L61.5986 6.152L61.6946 5.984L61.7666 5.744L61.7906 5.504L61.9346 5.192L62.0306 5L62.1026 4.832L62.1746 4.712L62.3666 4.496L62.4386 4.4L62.5826 4.16L62.7266 4.016L63.0146 3.776L63.4466 3.464L63.8306 3.32L64.0946 3.176L64.5506 3.08L64.9586 2.96H65.7026L66.3026 2.984H66.4706L66.6866 3.032L67.0466 3.056L67.4546 3.176L67.6226 3.2L67.7186 3.272L68.0066 3.416L68.1746 3.56L68.3666 3.632L68.6306 3.872L68.7026 3.968L68.9426 4.232L69.0146 4.352L69.1826 4.616L69.2786 4.76L69.3266 5.024L69.3986 5.192L69.5426 5.768V6.296L69.5666 6.776L69.5426 7.184L69.4466 7.856L69.3506 8.384L69.0626 8.528L68.6306 8.552H67.2866L66.9506 8.528H66.6146L66.4226 8.36L66.3986 8.048L66.4466 7.856L66.5186 7.112V6.56L66.4706 6.272L66.3986 6.128L66.1826 5.912L65.9426 5.72L65.6306 5.672L65.3426 5.768L65.0786 5.888L64.9586 6.056L64.8866 6.224L64.7906 6.464L64.7666 6.632L64.6946 6.872L64.6706 7.208V7.52L64.6946 7.688L64.8626 8.144L65.0546 8.48L65.1506 8.672L65.3186 8.984L65.5826 9.32L65.8946 9.704L65.9906 9.848L66.1106 9.968L66.2066 10.16L66.3026 10.28L66.4466 10.376L66.6866 10.568L66.7586 10.712L66.8786 10.784L66.9506 10.904L67.1666 11.144L67.2866 11.36L67.5746 11.648L67.7426 12.056L67.9586 12.32L67.9826 12.44L68.1746 12.92L68.3186 13.232L68.4626 13.736L68.4866 13.904L68.5106 14.096L68.5346 14.264L68.6546 14.672L68.7026 14.816L68.6786 15.152L68.6546 15.296L68.6786 15.464L68.6546 15.632V16.304L68.5826 16.64L68.5586 16.784V17.144L68.4626 17.456L68.4146 17.648L68.3666 17.864L68.2466 18.2L68.0306 18.608L67.8866 18.704L67.7666 18.944L67.6466 19.04L67.4546 19.256L67.3346 19.352L67.1426 19.52L66.9026 19.664L66.6866 19.832L66.3986 19.904L66.2546 20L65.8946 20.12L65.7026 20.144L65.3906 20.24L65.2226 20.264L65.0066 20.24L64.8386 20.264H64.5746L64.4066 20.288L64.1426 20.312ZM71.3424 20.048L70.9824 20.024L70.8144 20L69.0624 19.976L68.8464 19.928L68.7984 19.736L68.8464 19.568L68.8704 19.424L69.0144 19.136L69.2064 18.824L69.4464 18.104L69.5904 17.816L69.7104 17.528L69.9744 16.952L70.0704 16.64L70.2624 16.208L70.3104 16.064L70.4304 15.896L70.5504 15.608L70.5984 15.464L70.6224 15.296L70.6944 15.152L70.8144 14.84L70.8864 14.672L71.0544 14.336L71.1024 14.168L71.1504 13.952L71.2704 13.76L71.4144 13.472L71.4624 13.304L71.6064 12.968L71.6304 12.824L71.7024 12.656L71.7744 12.512L71.8944 12.176L71.9664 12.032L72.1584 11.36L72.2304 11.168L72.3984 10.856L72.5184 10.448L72.6624 10.184L72.7344 10.04L72.8064 9.728L72.9264 9.56L72.9984 9.248L73.0464 9.128L73.1904 8.816L73.2624 8.48L73.3824 8.312L73.4784 8.168L73.6704 7.664L73.7904 7.352L73.8624 7.208L74.0064 6.992L74.0784 6.752L74.1504 6.584L74.3664 6.152L74.4144 5.984L74.4864 5.84L74.5344 5.696L74.5824 5.528L74.7264 5.264L74.8224 5.12L74.8704 5L75.0144 4.568L75.1824 4.256L75.3984 3.824L75.4704 3.656L75.5424 3.512L75.6384 3.248L75.8064 3.224H76.0464L76.5024 3.248L76.7424 3.224H77.1264L77.5824 3.2H77.7984L77.9664 3.248L78.1824 3.224H78.5664L78.6864 3.272L78.8544 3.392L78.9264 4.424V4.952L78.9744 5.096V5.528L78.9984 6.392V6.728L79.0224 7.04L79.0704 7.52V7.856L79.0944 8.216L79.0704 8.384V8.912L79.1184 9.248V9.728L79.1424 10.064L79.1184 10.208L79.1424 10.52V10.664L79.1664 11.048L79.2144 11.312V12.248L79.2384 12.536L79.2624 12.728V13.448L79.2864 14.552V14.72L79.3104 15.08L79.2864 15.44L79.3104 15.776L79.2864 15.944L79.3344 16.856V17L79.3584 17.312L79.3824 17.48V17.84L79.3584 18.176L79.3824 18.368V18.584L79.4064 19.112V19.616C79.4304 19.712 79.4544 19.928 79.3344 20C79.2384 20.024 79.1664 20 79.0704 20L78.9024 20.024L78.7104 20H78.3744L77.8464 20.024H77.6544L77.3664 20L77.1984 20.024L76.9584 20.048L76.6464 20.024H76.2864L76.1904 19.952L76.1424 19.712L76.1184 19.28L76.0944 19.04L76.1184 18.8V17.672L76.0944 17.48L75.5664 17.456L75.1824 17.408L74.1264 17.384H73.4784L73.3584 17.648L73.1904 17.96L73.1424 18.128L73.0704 18.296L72.9744 18.584L72.7344 19.04L72.5904 19.4L72.5184 19.664L72.4464 19.784L72.3504 19.952L72.2064 20.048L71.5344 20.024L71.3424 20.048ZM75.3024 14.264H76.0224L76.1664 14.144L76.1904 13.808L76.1664 13.616L76.1904 13.424V12.8L76.2144 12.632V12.224L76.2624 12.032L76.2384 11.456L76.2624 10.544L76.2864 9.68L76.2624 9.128L76.0704 9.2L75.9744 9.512L75.8544 9.896L75.7824 10.136L75.6624 10.52L75.5664 10.712L75.4704 10.952L75.4464 11.12L75.3504 11.288L75.2784 11.504L75.2064 11.672L75.1344 11.888L74.9904 12.416L74.9664 12.584L74.8464 12.944L74.7504 13.112L74.6304 13.52L74.5824 13.688L74.5344 13.904L74.4624 14.072L74.6304 14.216H74.8224L75.0864 14.24L75.3024 14.264ZM81.3334 20.048L80.9734 20L80.8534 19.712L80.9014 19.52V19.136L80.9494 18.752L81.0454 18.416L81.0694 18.248L81.1414 17.912L81.1894 17.792L81.2614 17.456L81.3094 17.24L81.3814 16.856V16.688L81.4294 16.496V16.184L81.5254 16.016L81.5494 15.728L81.5734 15.56L81.6454 15.272L81.6694 15.128L81.6454 14.96L81.6934 14.648L81.7894 14.264L81.8374 13.976L81.8854 13.76L81.9574 13.496L82.0054 13.208L82.0294 13.04L82.0774 12.896L82.1014 12.584L82.1254 12.44V12.296L82.2454 12.008L82.2694 11.864L82.2934 11.696L82.3174 11.36L82.3414 11.12L82.4614 10.832L82.5094 10.64L82.5574 10.4V10.064L82.5814 9.872L82.6534 9.68V9.488L82.7254 9.32V9.152L82.7734 8.984L82.8214 8.672L82.8934 8.408L82.9654 8.192V7.904L82.9894 7.736L83.0374 7.592L83.1574 6.92V6.752L83.2534 6.536L83.3014 6.32L83.3254 6.008L83.3494 5.84L83.3734 5.696L83.3974 5.528L83.4454 5.384L83.4694 5.216L83.5174 4.904L83.5654 4.616L83.6374 4.304V4.112L83.7094 3.8L83.7574 3.656L83.8294 3.536L83.9734 3.272L84.2134 3.224L84.5494 3.2L84.9574 3.224H85.1734L85.4854 3.2L85.9414 3.224L86.2294 3.2L86.5894 3.224H86.9254L87.1894 3.296L87.3334 3.512L87.3574 3.68L87.4534 3.92L87.5014 4.208L87.5254 4.472L87.6214 4.808L87.7174 5.384L87.7894 5.768L87.8614 6.176L87.9334 6.512L88.0294 6.992L88.0774 7.184L88.1014 7.352L88.1494 7.712L88.2214 8.024V8.168L88.2934 8.432V8.6L88.3174 8.864L88.3894 9.224L88.4374 9.632L88.5094 10.04L88.5334 10.424L88.5814 10.76L88.6294 10.952L88.7014 11.6L88.7974 12.152L88.8454 12.68V12.848L88.8934 13.016L88.9414 13.304L89.0134 13.952L89.0854 14.48H89.1574L89.1814 14L89.2294 13.424V13.088L89.3014 11.936L89.3734 11.432V10.616L89.4454 10.28L89.4694 10.136L89.4934 9.968L89.5174 9.776L89.5414 9.44L89.5894 9.296L89.6374 8.96V8.816L89.7334 8.504V8.216L89.7574 7.928V7.76L89.9014 7.472L89.8774 7.304L89.9494 6.872V6.728L90.0214 6.416L90.0454 6.248L90.0934 6.104L90.1414 5.768L90.1654 5.576L90.2374 5.24L90.2854 5.072L90.3574 4.88V4.664L90.3814 4.52L90.4534 4.136L90.5494 3.632L90.7414 3.296L90.8374 3.224L91.2934 3.128L91.7974 3.176L91.9654 3.152H92.2054L92.7574 3.176H92.9974L93.3334 3.152L93.6694 3.224L93.8134 3.296L93.8374 3.488V3.68L93.7654 4.016L93.7894 4.208L93.7174 4.736L93.6694 5.072L93.5254 5.648L93.4534 5.912L93.3814 6.344L93.3334 6.536L93.2614 7.04L93.1654 7.424L93.1174 7.808L93.0454 8.024L92.9974 8.216L92.9494 8.384V8.696L92.9014 8.864L92.8054 9.584L92.7334 9.8L92.7094 10.064L92.6854 10.232L92.6374 10.424L92.5654 10.736L92.5174 10.904L92.4454 11.216L92.3974 11.552L92.3494 11.744L92.3734 11.96L92.3254 12.104L92.3014 12.272L92.2534 12.416L92.2294 12.584L92.2054 12.728V13.04L92.1334 13.184L92.0614 13.52L92.0134 13.736L91.9894 13.952L91.9654 14.096L91.9414 14.264L91.9174 14.408V14.552L91.8214 14.888L91.7734 15.224L91.7254 15.464L91.6294 15.68L91.5334 15.968L91.5094 16.232L91.4854 16.544L91.4374 16.856L91.3654 17.048L91.2694 17.384V17.768L91.1494 18.08V18.224L91.1014 18.392L91.0294 18.704L90.9094 19.472L90.6934 19.76L90.4534 19.928L90.1174 19.952L89.8534 20H89.7574L89.3014 19.976L89.1334 20L88.8934 19.976L88.7494 20H88.2694L87.9574 19.976H87.5494L87.3574 19.808L87.1654 19.424L87.0454 19.088L87.0214 18.968L86.9974 18.68L86.9734 18.536L86.9254 18.032L86.9014 17.888L86.8054 17.384L86.7814 17.24L86.7334 16.904L86.7094 16.544L86.6374 16.28L86.5654 15.92V15.776L86.4934 15.44L86.4694 15.296L86.3974 14.96L86.3734 14.816V14.456L86.2774 13.976L86.2294 13.52L86.1334 12.848L86.0134 12.08L85.9414 11.408L85.7974 10.544L85.6534 9.632H85.5814L85.5574 10.304L85.5334 10.784L85.5094 11.048L85.4614 11.456L85.4374 12.056L85.2694 13.208L85.1734 14.144L85.1254 14.288L85.0534 14.6L85.1014 14.768L85.0294 15.056L84.9814 15.224L85.0054 15.392L84.9814 15.536L84.9334 15.872L84.8374 16.232L84.7414 16.712L84.6934 17.048L84.6694 17.192L84.6214 17.36L84.5254 18.056L84.4534 18.368L84.4294 18.536V18.848L84.3814 18.992L84.3094 19.424L84.2134 19.712L84.1414 19.952L83.8774 20.048H81.3334ZM98.1349 20.048L97.5829 20.024L97.2709 20L96.9589 20.024L96.5989 19.976L96.3109 20L96.1189 19.976H95.9029L95.5669 19.928L95.4229 19.904H95.2309L95.0629 19.928H94.3429L94.0069 19.88L93.8149 19.832V19.28L93.8389 19.064L93.9589 18.776L94.0069 18.44L94.0309 18.296L94.1029 17.96L94.1509 17.72L94.1989 17.528V17.336L94.2469 17L94.2709 16.808L94.3189 16.544L94.4149 16.352L94.4629 16.112V15.92L94.5349 15.584L94.5829 15.392L94.6069 15.08L94.6309 14.936L94.7269 14.768V14.24L94.7989 13.904L94.8229 13.712L94.8949 13.376L94.9189 13.208L94.9669 12.896L95.0149 12.728L95.0869 12.44L95.1109 12.296L95.2069 12.008V11.528L95.2549 11.36L95.3029 11.216L95.3749 10.88L95.4229 10.736L95.5429 10.064L95.6149 9.896L95.6629 9.728L95.6869 9.56V9.416L95.7109 9.248L95.7589 8.96L95.7829 8.792L95.8549 8.504V8.36L95.9029 8.072L95.9989 7.784V7.448L96.0229 7.256L96.0709 6.752L96.1189 6.464L96.2389 6.032L96.2869 5.864V5.72L96.3109 5.552L96.3829 5.24L96.4309 4.904L96.4789 4.616L96.5509 4.472L96.5749 4.304L96.5989 4.016L96.6469 3.848L96.7189 3.608L96.7669 3.536L96.8389 3.272L97.0789 3.2H97.2469L97.5349 3.224L97.7029 3.248L98.0869 3.2H98.2789L98.8069 3.224L99.2869 3.2H99.8869L100.151 3.224L100.295 3.2H100.679L100.871 3.224L101.087 3.248L101.447 3.296H101.615L101.807 3.368L102.143 3.464H102.191L102.335 3.512L102.743 3.632L102.863 3.704L102.959 3.752L103.199 3.896L103.367 4.016L103.511 4.136L103.871 4.616L104.063 4.904L104.159 5.024L104.279 5.24L104.375 5.576L104.519 5.936L104.615 6.104L104.687 6.512V6.68L104.807 7.016L104.783 7.184L104.831 7.664L104.855 7.976L104.783 8.12L104.855 8.456L104.879 8.6L104.855 8.768L104.903 8.936L104.879 9.104V9.248L104.807 9.632V9.8L104.759 10.208L104.735 10.376V11.048L104.615 11.432V11.6L104.519 12.056L104.471 12.416L104.423 12.968L104.375 13.16L104.303 13.352L104.279 13.592L104.135 14.096L104.111 14.408L104.063 14.696L103.991 14.864L103.823 15.176L103.775 15.32L103.751 15.584L103.607 15.896L103.583 16.04L103.487 16.376L103.319 16.712L103.151 17.192L103.031 17.432L102.839 17.624L102.815 17.768L102.695 17.936L102.575 18.08L102.407 18.368L102.071 18.776L101.735 19.04L101.519 19.232L101.375 19.328L101.063 19.472L100.799 19.544L100.559 19.712L100.223 19.808L99.9829 19.856L99.5989 19.904L99.3349 20H98.5909L98.4229 20.024H98.3029L98.1349 20.048ZM98.0389 16.784H98.7589L98.9989 16.712L99.1909 16.616L99.4549 16.472L99.5749 16.376L99.7669 16.184L99.9349 15.992L100.007 15.848L100.103 15.68L100.199 15.44L100.319 15.2L100.439 14.888L100.583 14.432L100.655 14.168L100.727 13.832L100.823 13.52L100.847 13.376L100.895 13.256L100.943 13.112L101.015 12.824L101.039 12.656L101.087 12.344L101.135 12.008L101.183 11.648L101.207 11.48L101.255 11.288L101.375 10.952V10.616L101.447 10.112L101.471 9.968L101.519 9.464L101.495 8.96L101.519 8.264L101.471 7.616L101.447 7.424L101.303 7.016L101.135 6.704L100.991 6.584L100.871 6.488L100.463 6.368L100.079 6.32L99.7669 6.296L99.5509 6.32L99.4789 6.512L99.4069 6.68V6.824L99.3589 6.992L99.2869 7.352L99.1909 7.688L99.1429 8L99.0949 8.336L99.0469 8.864L99.0229 9.008L98.9749 9.176V9.344L98.9509 9.536L98.8789 9.68V9.824L98.8069 10.16L98.7589 10.544V10.712L98.6869 11.048L98.6389 11.192L98.5669 11.528V11.672L98.4949 12.008L98.4469 12.176L98.4709 12.32L98.4229 12.488L98.3269 13.112V13.424L98.3029 13.568L98.1829 13.904V14.048L98.1109 14.408L98.0149 14.84L97.9909 15.008L97.8949 15.344L97.8469 15.704L97.8229 16.064L97.7509 16.472L97.7029 16.688L98.0389 16.784ZM108.392 20.024L108.008 19.976H107.816L107.432 20H106.448L106.304 19.976H106.112L105.752 19.952L105.536 19.928L105.368 19.784L105.392 19.592L105.44 19.352V18.992L105.512 18.8L105.56 18.584L105.608 18.248L105.656 17.96L105.68 17.792L105.776 17.48L105.824 17.144L105.848 16.808L105.896 16.664L105.92 16.496L105.968 16.328L105.992 16.136L106.064 15.944L106.088 15.8L106.136 15.44L106.184 15.056L106.28 14.816L106.256 14.576L106.328 14.24L106.4 14.048L106.448 13.856L106.472 13.712V13.544L106.544 13.232L106.592 12.92L106.616 12.752L106.688 12.464V12.32L106.712 12.224L106.76 11.984L106.856 11.648L106.88 11.312L106.928 11.192L107.024 10.88L107.048 10.688L107.144 10.352L107.192 10.016V9.824L107.216 9.656L107.264 9.488L107.336 9.272L107.36 9.056L107.384 8.768L107.432 8.6L107.456 8.456L107.528 8.264L107.552 8.048L107.576 7.904V7.736L107.624 7.592L107.648 7.448L107.696 7.088L107.792 6.752L107.84 5.984L107.912 5.624L107.984 5.312L108.128 4.736L108.2 4.424V4.232L108.224 4.064L108.248 3.704L108.296 3.488L108.368 3.368L108.584 3.176L108.92 3.152H109.52L109.664 3.176L109.928 3.152H110.432L111.608 3.2L112.568 3.176L112.904 3.2H113.624L113.888 3.248L114.128 3.272L114.488 3.368L114.776 3.44L115.016 3.56L115.232 3.656L115.496 3.872L115.808 4.208L116.024 4.4L116.12 4.544L116.192 4.664L116.288 4.952L116.432 5.288L116.456 5.48V5.648L116.504 5.84L116.552 6.128L116.528 6.488L116.504 6.632V6.8L116.48 6.944L116.432 7.112V7.256L116.384 7.568L116.36 7.736L116.264 8.048L116.288 8.192L116.24 8.36L116.216 8.432L116.192 8.6L116.144 8.744L116.096 8.912L116.024 9.056L115.928 9.272L115.76 9.536L115.592 9.776L115.4 10.064L115.088 10.376L114.968 10.472L114.848 10.616L114.728 10.712L114.56 10.808L114.272 10.976L113.984 11.096L113.768 11.192V11.336L114.008 11.432L114.272 11.576L114.488 11.672L114.776 11.864L114.92 12.032L115.064 12.176L115.208 12.416L115.304 12.584L115.424 12.848L115.472 13.088L115.544 13.232L115.592 13.544L115.688 13.856L115.664 14.168L115.712 14.408L115.688 14.624V14.936L115.664 15.104L115.616 15.464L115.544 15.824L115.472 16.136L115.448 16.304L115.376 16.64L115.328 16.784L115.28 16.952L115.232 17.096L115.184 17.264L114.8 18.032L114.584 18.32L114.44 18.584L114.32 18.704L114.152 18.848L114.056 18.968L113.864 19.088L113.72 19.16L113.6 19.28L113.432 19.376L113.312 19.472L113.192 19.544L113.024 19.616L112.832 19.712L112.568 19.784L112.376 19.856L112.232 19.88L112.016 19.904L111.704 19.976L111.56 19.952L111.2 20.024L110.84 20L110.672 19.976L110.504 20L109.856 20.024L109.544 20L109.352 19.976H109.016L108.824 20H108.752L108.392 20.024ZM111.104 9.584L111.44 9.56L111.728 9.512L111.92 9.392L112.184 9.224L112.472 8.984L112.592 8.768L112.784 8.528L112.904 8.192L112.976 7.904L113.024 7.76L113.048 7.568L113.144 7.328L113.12 7.064L113.096 6.896L113.072 6.608L112.928 6.32L112.856 6.2L112.664 6.032L112.52 6.008L112.304 5.96L111.872 5.912H111.272L111.08 5.96V6.128L111.008 6.344L110.984 6.56L110.96 6.728L110.888 7.016V7.184L110.816 7.496L110.792 7.664L110.744 7.808L110.576 8.984L110.528 9.176L110.504 9.416V9.56H110.816L111.104 9.584ZM109.568 16.928L109.784 16.856L110.384 16.928H110.84L111.008 16.856H111.176L111.344 16.784L111.56 16.616L111.728 16.472L111.872 16.256L111.896 16.064L112.016 15.8L112.064 15.632L112.088 15.44L112.208 15.128L112.256 14.696L112.232 14.288L112.256 13.976L112.04 13.4L111.776 13.16L111.32 12.992L111.08 12.944L110.888 12.896H110.552L110.288 12.872H109.952L109.88 13.088L109.832 13.52L109.784 13.712L109.736 13.808L109.688 14.168L109.64 14.336V14.504L109.592 14.648L109.568 14.84L109.52 15.176L109.472 15.344L109.4 15.704V15.872L109.352 16.208L109.304 16.4L109.28 16.592L109.184 16.904L109.568 16.928ZM122.011 20.384L121.387 20.312L121.075 20.336L120.907 20.312L120.691 20.288L120.139 20.12L119.947 20.096L119.587 20L119.419 19.904L119.083 19.688L118.651 19.328L118.315 18.944L118.243 18.824L118.123 18.704L118.051 18.56L117.931 18.392L117.739 18.08V17.936L117.667 17.768L117.643 17.624L117.595 17.504L117.547 17.36L117.523 17.192L117.475 17.048L117.451 16.712L117.427 16.568L117.355 16.088L117.403 15.92V15.464L117.475 15.224L117.451 15.032V14.864L117.499 14.336L117.595 14V13.808L117.643 13.472V13.304L117.739 12.968L117.691 12.848L117.739 12.536L117.787 12.368L117.859 11.936L117.931 11.648V11.336L118.003 11.048V10.88L118.075 10.736L118.123 10.568V10.424L118.171 10.256L118.147 10.112L118.291 9.872L118.339 9.704V9.368L118.387 9.08L118.459 8.912L118.483 8.768L118.531 8.432L118.627 7.832L118.747 7.664L118.795 7.352L118.939 7.04L119.011 6.872L119.107 6.584L119.227 6.248L119.371 5.96L119.467 5.792L119.683 5.48L119.707 5.312L119.803 5.168L119.995 4.856L120.187 4.568L120.355 4.448L120.475 4.304L120.811 3.944L121.123 3.728L121.315 3.656L121.483 3.536L121.771 3.368L122.059 3.224L122.419 3.128L122.563 3.104L122.923 3.008L123.163 2.984L123.595 2.912L123.931 2.888L124.219 2.864L124.651 2.888L124.795 2.912L125.059 2.936L125.443 2.984L125.635 3.056L125.827 3.08L125.971 3.128L126.331 3.296L126.763 3.584L126.955 3.704L127.075 3.848L127.339 4.064L127.603 4.304L127.723 4.448L127.795 4.616L127.939 4.928L128.011 5.072L128.059 5.216L128.107 5.384L128.179 5.744L128.227 6.2L128.251 6.392V6.56L128.227 6.872L128.203 7.016L128.227 7.328V7.496L128.203 7.808L128.155 7.976L128.131 8.12L128.155 8.288V8.528L128.131 8.672L128.083 9.008L128.059 9.368L128.035 9.752L127.987 9.92L127.939 10.304L127.963 10.544L127.843 10.808L127.867 11.096L127.771 11.408L127.723 11.72L127.651 12.032L127.627 12.32L127.555 12.632L127.483 12.776L127.411 13.208V13.424L127.363 13.592L127.315 13.928L127.243 14.072L127.003 14.912L127.027 15.056L126.907 15.344L126.835 15.488L126.811 15.752L126.691 16.016L126.619 16.304V16.472L126.547 16.736L126.427 16.904L126.403 17.144L126.235 17.48L126.043 17.912L125.923 18.08L125.707 18.392L125.611 18.536L125.491 18.68L125.443 18.824L125.155 19.112L125.011 19.232L124.891 19.376L124.603 19.592L124.315 19.784L124.219 19.856L123.667 20.072L123.499 20.096L123.307 20.144L122.971 20.216L122.803 20.24L122.539 20.312L122.011 20.384ZM121.819 17.12H122.131L122.467 17.024L122.683 16.928L123.019 16.688L123.187 16.352L123.331 16.016L123.379 15.848V15.656L123.451 15.296L123.499 15.128L123.547 14.792L123.619 14.6L123.643 14.264L123.715 14.096L123.787 13.784L123.811 13.592L123.883 13.448V13.256L123.859 13.184L123.931 12.968L124.003 12.608L124.051 12.056L124.123 11.84L124.195 11.648L124.243 11.192L124.315 11.048L124.291 10.64L124.387 10.28L124.435 9.992L124.483 9.8L124.531 9.632L124.507 9.464L124.531 9.152L124.579 8.96L124.651 8.624L124.699 8.408V8.096L124.747 7.664L124.771 7.352L124.819 7.016L124.723 6.536L124.627 6.392L124.459 6.176L124.075 6.008L123.619 6.032L123.427 6.08L123.043 6.224L122.803 6.44L122.635 6.704L122.539 6.992L122.443 7.16L122.299 7.472L122.251 7.64L122.203 7.832L122.059 8.336V8.384L122.035 8.576L121.963 8.912L121.939 9.056L121.843 9.392L121.771 9.728L121.699 10.112L121.675 10.28L121.627 10.448L121.579 10.808L121.507 11L121.411 11.384L121.363 11.552L121.315 11.888V12.056L121.291 12.224L121.315 12.416L121.243 12.584L121.123 12.92L121.147 13.112L121.099 13.28L121.123 13.376L121.075 13.592V13.784L121.027 13.952V14.144L120.955 14.504V14.672L120.883 14.84L120.955 15.008L120.931 15.296L120.835 15.536L120.907 15.704V16.376L120.979 16.544L121.027 16.64L121.171 16.856L121.291 16.976L121.483 17.048L121.675 17.096L121.819 17.12ZM134.577 20.072L134.433 20.024L134.361 19.856L134.337 19.736L134.265 19.616L134.217 19.424L134.193 19.136L134.169 18.944L134.097 18.776L134.025 18.368L133.929 18.008L133.857 17.672L133.785 17.36L133.641 16.856L133.593 16.544L133.545 16.4L133.473 16.112L133.449 15.896L133.377 15.728L133.305 15.392L133.257 15.176L133.161 14.888L133.089 14.912L132.993 15.056L132.801 15.44L132.633 15.728L132.537 15.872L132.513 15.992L132.417 16.136L132.345 16.256L131.985 16.832L131.913 17L131.841 17.144L131.673 17.432L131.601 17.6L131.433 17.888L131.361 18.056L131.217 18.344L131.169 18.488L131.025 18.776L130.953 18.896L130.881 19.088L130.737 19.4L130.641 19.544L130.545 19.76L130.401 19.976L130.137 20L129.801 20.024H129.249L129.009 20H128.625L128.265 19.976L127.881 20H127.449L127.185 19.904L127.233 19.472L127.425 19.16L127.545 18.872L127.833 18.344L127.905 18.2L128.049 17.936L128.121 17.792L128.217 17.648L128.289 17.504L128.457 17.216L128.505 17.072L128.577 16.928L128.673 16.664L128.769 16.52L128.817 16.4L128.961 16.256L129.177 15.848L129.249 15.704L129.369 15.416L129.417 15.248L129.537 15.104L129.585 14.96L129.657 14.816L129.753 14.696L129.921 14.408L130.113 14.12L130.209 14L130.305 13.832L130.449 13.52L130.521 13.376L130.617 13.232L130.689 13.064L130.905 12.632L130.977 12.512L131.073 12.368L131.121 12.224L131.313 11.96L131.385 11.84L131.457 11.696L131.529 11.576L131.649 11.264L131.865 10.928L131.745 10.568L131.673 10.4L131.649 10.232L131.529 9.872L131.457 9.704L131.409 9.344L131.289 9.008L131.265 8.864L131.193 8.528L131.121 8.36L131.025 8.168L130.929 7.832L130.881 7.64L130.809 7.472L130.713 7.136L130.665 6.944L130.593 6.776L130.545 6.584L130.401 6.248L130.353 6.104L130.281 5.792L130.233 5.648L130.137 5.336L130.041 5L129.897 4.664L129.849 4.496L129.753 4.136L129.681 3.968L129.609 3.776L129.585 3.608V3.464L129.777 3.248L129.969 3.224H131.049L131.337 3.2H131.673L131.913 3.248L132.129 3.224H132.465L132.633 3.248H132.921L133.041 3.32L133.089 3.536L133.137 3.824L133.209 3.992L133.305 4.352L133.329 4.496L133.377 4.664V4.808L133.473 5.168L133.497 5.312L133.593 5.504L133.641 5.864L133.665 6.032L133.713 6.224L133.809 6.392L133.857 6.656L133.905 6.896L133.953 7.16L134.025 7.352L134.073 7.712L134.145 7.928L134.193 8.288H134.265L134.313 8.216L134.433 7.928L134.577 7.592L134.769 7.328L134.817 7.184L134.913 7.064L135.009 6.824L135.609 5.624L135.705 5.48L135.753 5.36L135.849 5.216L135.921 5.072L136.041 4.76L136.137 4.616L136.185 4.448L136.281 4.304L136.353 4.16L136.377 3.992L136.497 3.824L136.617 3.536L136.689 3.416L136.785 3.296L137.121 3.2H137.793L137.985 3.248L138.249 3.2L138.513 3.248H138.681L139.137 3.2L139.305 3.248L139.425 3.2H139.929L140.073 3.296L140.097 3.464L139.953 3.728L139.905 3.896L139.857 4.04L139.761 4.208L139.713 4.352L139.641 4.496L139.497 4.664L139.425 4.784L139.305 5.072L139.137 5.36L139.065 5.456L138.993 5.6L138.921 5.816L138.753 5.936L138.681 6.104L138.585 6.344L138.441 6.584L138.321 6.824L138.177 7.016L138.081 7.136L137.985 7.304L137.817 7.568L137.769 7.784L137.601 8.048L137.481 8.312L137.217 8.744L137.049 9.008L136.977 9.128L136.857 9.392L136.713 9.632L136.425 10.064L136.161 10.52L136.065 10.664L135.873 11.048L135.657 11.336L135.633 11.528L135.681 11.792L135.777 12.2L135.849 12.56L135.873 12.728L135.969 13.04L135.993 13.232L136.017 13.4L136.089 13.592L136.137 13.784L136.209 14.096L136.281 14.288L136.353 14.624L136.449 14.96L136.497 15.176L136.545 15.32L136.689 15.824L136.785 16.184L136.833 16.352L136.881 16.496L136.977 16.808L137.025 16.976V17.12L137.169 17.432L137.193 17.576L137.217 17.84L137.265 18.056L137.337 18.2L137.433 18.536L137.481 18.92L137.529 19.088L137.649 19.256L137.697 19.424L137.793 19.832L137.625 19.952L137.313 20H137.001L136.833 20.024L136.425 20L135.513 20.024H134.961L134.577 20.072Z" fill="white"/>
</svg>
