<svg width="50" height="50" viewBox="0 0 50 50" fill="none" xmlns="http://www.w3.org/2000/svg">
<path d="M25 1.5C37.9787 1.5 48.5 12.0213 48.5 25C48.5 37.9787 37.9787 48.5 25 48.5C12.0213 48.5 1.5 37.9787 1.5 25C1.5 12.0213 12.0213 1.5 25 1.5Z" fill="#041527"/>
<path d="M25 1.5C37.9787 1.5 48.5 12.0213 48.5 25C48.5 37.9787 37.9787 48.5 25 48.5C12.0213 48.5 1.5 37.9787 1.5 25C1.5 12.0213 12.0213 1.5 25 1.5Z" stroke="#E8DBC1" strokeWidth="3"/>
<path d="M4.5 33.52H4.56C4.52 33.52 4.48 33.52 4.44 33.54L4.34 33.5L4.4 33.34H4.5C4.6 33.28 4.68 33.24 4.8 33.24L4.84 33.2H5L5.1 33.14C5.16 33.14 5.24 33.14 5.28 33.1L5.52 33.08L5.62 32.96C5.7 32.96 5.74 32.9 5.82 32.9H5.84C5.9 32.86 5.98 32.82 6.06 32.8L5.98 32.74L5.88 32.8C5.72 32.76 5.58 32.8 5.42 32.82V32.8C5.42 32.7 5.8 32.6 5.88 32.6L6.06 32.5L6.3 32.54L6.36 32.32L6.24 32.42L6 32.44L5.98 32.46C5.98 32.48 6 32.52 5.96 32.52C5.9 32.52 5.84 32.48 5.8 32.46L5.56 32.54C5.56 32.6 5.46 32.62 5.42 32.62C5.38 32.62 5.32 32.6 5.28 32.58L5.22 32.64C5 32.64 4.92 32.72 4.68 32.7C4.62 32.7 4.56 32.68 4.5 32.72L4.36 32.64C4.36 32.8 3.94 32.66 3.88 32.64C3.84 32.72 3.66 32.74 3.66 32.7C3.66 32.66 4.12 32.6 4.2 32.6H4.26L4.4 32.48C4.52 32.5 4.76 32.42 4.92 32.42H5C5.04 32.36 5.16 32.36 5.22 32.36C5.36 32.22 5.92 32.04 6.12 32.04L6.24 31.96C6.3 31.98 6.36 31.94 6.38 31.88L6.02 31.86L5.96 31.94L5.82 31.9L5.76 31.96H5.56L5.38 32.06C5.36 32.04 5.26 32 5.26 31.96C5.26 31.94 5.28 31.94 5.3 31.94H5.34L5.36 31.9H5.56C5.58 31.82 5.7 31.82 5.76 31.82L5.96 31.74C6.06 31.76 6.04 31.7 6.12 31.7H6.16L6.3 31.58C6.38 31.56 6.6 31.5 6.68 31.5C6.82 31.5 6.94 31.46 7.08 31.46C7.1 31.44 7.14 31.44 7.14 31.4C7.14 31.38 7.12 31.38 7.1 31.38C7.16 31.32 7.26 31.26 7.34 31.22L7.42 31.28L7.34 31.2C7.44 31.2 7.58 31.16 7.6 31.04L7.72 30.9C7.78 30.9 7.82 30.92 7.86 30.94L7.98 30.82C8.38 30.74 9.4 30.66 9.72 30.38L10.18 30.28C10.32 30.3 10.44 30.26 10.56 30.26H10.64C10.66 30.26 10.74 30.22 10.74 30.2C10.74 30.16 10.72 30.16 10.7 30.16L10.82 30.04C10.82 29.98 10.86 29.92 10.92 29.92L10.98 29.94L11.06 30.04L10.98 29.92C11 29.78 11.26 29.9 11.3 29.72C11.3 29.66 11.32 29.56 11.4 29.56C11.48 29.56 11.54 29.64 11.62 29.62L11.86 29.26C11.94 29.3 12 29.06 12.02 29C12.16 29 12.1 28.66 12.24 28.66C12.24 28.62 12.24 28.56 12.18 28.56C12.02 28.56 11.74 29.04 11.7 29.1C11.54 29.12 11.62 29.28 11.52 29.28C11.48 29.28 11.36 29.28 11.36 29.22C11.36 29.02 11.58 29.02 11.58 28.84L11.44 28.76C11.44 28.68 11.56 28.62 11.62 28.58L11.64 28.32C11.72 28.32 11.8 28.28 11.86 28.22C11.86 28.18 11.9 28.12 11.94 28.12H11.96C11.96 28.06 11.96 27.96 12.04 27.96H12.06L12.24 27.6C12.36 27.6 12.28 27.44 12.42 27.44C12.42 27.42 12.42 27.34 12.38 27.34C12.34 27.34 12.3 27.42 12.28 27.44L12.08 27.56C12.08 27.68 12 27.66 12 27.76C11.9 27.86 11.8 27.96 11.72 28.08C11.72 28.12 11.68 28.26 11.62 28.26C11.6 28.26 11.58 28.24 11.56 28.22C11.6 27.92 11.84 27.68 11.84 27.6L11.98 27.5C12.02 27.5 12.02 27.48 12.02 27.46C12.02 27.38 12 27.28 11.96 27.22C11.98 27.14 12.06 26.98 12.14 26.98C12.16 26.98 12.18 26.98 12.2 27C12.16 27.02 12.1 27.06 12.1 27.12C12.1 27.16 12.14 27.18 12.18 27.18C12.3 26.92 12.46 26.1 12.6 26C12.6 25.82 12.76 25.74 12.78 25.56C12.8 25.54 13.08 25.04 13.12 25.04C13.14 25.04 13.14 25.14 13.14 25.14C13.14 25.14 13.14 25.18 13.16 25.18C13.2 25.18 13.3 25.06 13.32 25.02L13.28 24.84C13.28 24.92 13.26 25.02 13.22 25.08C13.18 25.08 13.16 25.04 13.16 25C13.16 24.86 13.26 24.74 13.32 24.62C13.36 24.6 13.5 24.22 13.5 24.16L13.68 24.02C13.68 24.02 13.68 23.98 13.7 23.98C13.74 23.98 13.76 24.1 13.8 24.1C13.82 24.1 13.82 24.06 13.82 24.06C13.82 24 13.8 23.9 13.78 23.84L13.92 23.62C13.92 23.58 13.92 23.5 13.98 23.5L14.08 23.52L14.12 23.22C14.28 23.22 14.2 22.8 14.34 22.8C14.42 22.74 14.5 22.68 14.56 22.6C14.56 22.54 14.6 22.48 14.66 22.46C14.68 22.32 14.76 22.2 14.76 22.04L15.04 21.68V21.44L15.2 21.3C15.24 21.22 15.3 21.04 15.38 21C15.38 20.96 15.4 20.88 15.46 20.88C15.46 20.8 15.5 20.5 15.62 20.5H15.64C15.66 20.24 15.98 19.9 16.02 19.62L16.2 19.52L15.98 19.3C15.94 19.3 15.84 19.3 15.84 19.24V19.2C15.74 19.2 15.7 19.28 15.7 19.38V19.4L15.62 19.3C15.36 19.24 15.14 19.22 14.86 19.22C14.86 19.38 14.62 19.16 14.54 19.16C14.5 19.16 14.48 19.2 14.48 19.24L14.32 19.3C14.32 19.32 14.32 19.38 14.28 19.38C14.22 19.38 14.18 19.32 14.14 19.28C13.94 19.24 13.8 19.14 13.7 19.3H13.46L13.38 19.22L13.32 19.28L13 19.26C13 19.3 12.96 19.32 12.92 19.32C12.68 19.32 12.4 19.26 12.16 19.24L12.06 19.36L11.74 19.32C11.7 19.34 11.62 19.34 11.62 19.28C11.62 19.24 11.7 19.22 11.72 19.22C11.96 19.22 12 19.1 12.16 19.1H12.22L12.26 19L12.44 19.04L12.6 18.88C12.8 18.8 13.02 18.72 13.22 18.7L13.32 18.58L13.76 18.48C13.72 18.26 14.12 18.46 14.12 18.36V18.34C14.22 18.36 14.32 18.3 14.34 18.2L14.3 18.14H14.1L14.02 18.2C13.82 18.14 13.8 18.14 13.66 18.24L13.18 18.18L13 18.28C13.04 18.2 12.96 18.18 12.9 18.18H12.86L12.7 18.26L12.52 18.22C11.92 18.36 11.04 18.44 10.38 18.44H10.3C10.3 18.58 10.02 18.58 9.94 18.58C9.86 18.58 9.8 18.56 9.8 18.48L10.18 18.28C10.3 18.28 10.42 18.22 10.54 18.22C10.6 18.22 11.02 18.28 11.04 18.16C10.92 18.14 10.94 18.02 10.84 18.02H10.82L10.68 17.96C10.9 17.96 11.14 17.92 11.36 17.88C11.38 17.8 11.6 17.8 11.66 17.78L11.68 17.76C11.68 17.74 11.62 17.72 11.6 17.72C11.62 17.7 11.62 17.66 11.58 17.66C11.22 17.66 10.88 17.68 10.52 17.66C10.6 17.6 10.7 17.56 10.8 17.56C10.88 17.56 10.98 17.56 11.06 17.6C11.12 17.58 11.34 17.56 11.34 17.54C11.34 17.5 11.28 17.44 11.24 17.42H10.48C10.5 17.56 10.4 17.48 10.36 17.42C9.78 17.46 9.24 17.56 8.64 17.56L8.56 17.66L7.02 17.7L6.94 17.78C6.88 17.78 6.84 17.76 6.84 17.7C6.84 17.62 6.82 17.5 6.92 17.5C7.08 17.5 7.08 17.52 7.24 17.44H7.34L7.62 17.32C7.6 17.16 7.82 17.16 7.92 17.16C8.06 17.16 8.18 17.16 8.3 17.18C8.44 17.1 8.6 17.02 8.76 17L8.8 16.94C8.92 16.92 8.98 16.8 9.06 16.8H9.38C9.4 16.76 9.46 16.74 9.5 16.74L9.58 16.64L9.7 16.66L9.74 16.6L10.64 16.44C10.66 16.42 10.7 16.38 10.74 16.38L10.8 16.4C10.96 16.42 11.2 16.42 11.36 16.34C11.4 16.3 11.46 16.28 11.5 16.28L11.56 16.3L11.64 16.16C11.84 16.14 12.1 16.18 12.28 16.08H12.74C12.82 15.94 14.14 15.92 14.42 15.92C14.46 15.92 14.6 15.96 14.6 15.94C14.72 15.94 14.86 15.94 14.98 15.98L15.1 15.86C15.88 15.94 16.6 15.92 17.4 15.98C17.48 15.84 17.72 15.9 17.84 15.96C17.84 15.9 17.86 15.82 17.92 15.82C17.96 15.82 18 15.82 18.04 15.84C18.1 15.82 18.22 15.82 18.22 15.92C18.22 16.08 18.1 16 18.1 16.12C18.1 16.14 18.12 16.18 18.14 16.18C18.2 16.18 18.26 16.14 18.3 16.1C18.42 16.1 18.38 15.88 18.56 15.88C18.64 15.88 18.72 15.9 18.78 15.96L19.38 16L19.48 15.88C19.56 15.88 19.64 15.92 19.7 15.96L19.82 15.8L20 15.72C20 15.68 20.02 15.6 20.08 15.6C20.16 15.6 20.24 15.68 20.3 15.74L20.32 16.04C20.36 16.04 20.44 16.04 20.44 16.1C20.44 16.14 20.42 16.18 20.42 16.22C20.48 16.26 20.54 16.32 20.62 16.32C20.64 16.32 20.66 16.28 20.66 16.26C20.9 16.02 21.18 15.54 21.34 15.24C21.34 15.2 21.38 15.12 21.44 15.12L21.54 14.96C21.54 14.86 21.62 14.78 21.7 14.74C21.68 14.82 21.74 14.98 21.6 14.98C21.58 15.36 21.54 15.16 21.48 15.3C21.48 15.4 21.4 15.58 21.38 15.7L21.32 15.82C21.32 15.94 21.22 16.02 21.22 16.14C21.22 16.18 21.26 16.22 21.3 16.22L21.48 16.04L21.54 15.86C21.52 15.72 21.52 15.7 21.66 15.7C21.74 15.7 21.78 15.78 21.78 15.86C21.78 15.98 21.78 16.14 21.66 16.2V16.26C21.66 16.34 21.68 16.48 21.56 16.48L21.54 16.74C21.54 16.86 21.62 16.92 21.74 16.92L21.92 16.84C21.92 16.96 22.12 16.94 22.18 16.94C22.3 16.98 22.4 17.16 22.54 17.16C22.58 17.16 22.58 17.1 22.58 17.08L23.04 17.24C23.04 17.38 23.32 17.4 23.42 17.42C23.4 17.6 23.92 17.72 24.06 17.76C24.2 17.74 24.54 18.06 24.7 18.06L24.96 18.36L25.24 18.48L25.42 18.66C25.58 18.7 25.66 18.84 25.82 18.84H25.84C25.84 18.92 25.9 18.96 25.98 18.96H26L26.16 19.14C26.3 19.16 26.42 19.34 26.48 19.44C26.4 19.54 26.62 19.48 26.62 19.66L26.78 19.74C26.88 19.84 26.96 19.98 27.02 20.1C27.02 20.12 27.02 20.18 26.98 20.18C26.9 20.18 26.76 19.96 26.76 19.88V19.86L26.62 19.74H26.58C26.58 19.74 26.56 19.74 26.56 19.76C26.56 19.8 26.62 19.84 26.66 19.86L26.76 20.04L26.8 20.32L26.96 20.48L27 20.72C27.14 20.72 27.2 20.9 27.2 21C27.2 21.36 27.46 21.22 27.46 21.4V21.42C27.56 21.54 27.62 21.62 27.62 21.76C27.62 21.94 27.64 22.02 27.74 22.16L27.7 23.5C27.58 23.5 27.62 23.96 27.52 23.96H27.5C27.44 24.06 27.36 24.18 27.36 24.3C27.36 24.34 27.38 24.36 27.42 24.36H27.44C27.52 24.36 27.48 24.08 27.6 24.08H27.62C27.6 24.26 27.36 24.94 27.36 25.06C27.36 25.1 27.36 25.22 27.28 25.22H27.26L27.22 25.74C27.02 25.96 26.92 26.22 26.68 26.44C26.68 26.54 26.62 26.58 26.62 26.62V26.66C26.6 26.66 26.46 26.72 26.46 26.74C26.46 26.76 26.5 26.76 26.5 26.76L26.3 27.18C26.24 27.28 26.1 27.36 26.08 27.5C26.08 27.52 26.08 27.58 26.04 27.58C25.96 27.58 25.92 27.58 25.92 27.66C25.94 27.68 26.06 27.76 25.96 27.76H25.92L25.62 27.96C25.6 28.06 25.52 28.3 25.38 28.3H25.34C25.32 28.4 25.24 28.44 25.14 28.44H25.1L24.92 28.58C24.9 28.74 24.58 28.74 24.56 28.94L24.42 29C24.4 29.06 24.4 29.18 24.32 29.18L24.2 29.16L23.92 29.48C23.9 29.54 23.84 29.58 23.78 29.58C23.76 29.64 23.7 29.66 23.64 29.66H23.6L23.28 29.94C23.16 29.94 23.18 29.94 23.12 30.04L23.06 29.94L22.96 30.04C22.88 30.02 22.82 30.08 22.8 30.14C22.66 30.14 22.62 30.22 22.52 30.22C22.52 30.3 22.46 30.32 22.38 30.32C22.36 30.32 22.28 30.3 22.28 30.34C22.28 30.36 22.32 30.38 22.34 30.4C22.3 30.64 22.08 30.62 22.08 30.74C22.02 30.7 21.98 30.64 21.98 30.58L22 30.52C22.06 30.62 22.12 30.52 22.12 30.44C22.12 30.42 22.1 30.38 22.06 30.38C22.02 30.46 21.92 30.44 21.86 30.42L21.78 30.7C21.82 30.7 21.9 30.72 21.9 30.76C21.9 30.84 21.76 30.86 21.7 30.86H21.68C21.7 30.78 21.68 30.68 21.58 30.68V30.86C21.56 30.88 21.52 30.96 21.48 30.96C21.44 30.96 21.44 30.92 21.44 30.9C21.44 30.9 21.44 30.84 21.42 30.84C21.38 30.84 21.34 30.9 21.32 30.92L21.18 30.74H21.14C21.06 30.74 21 30.82 20.88 30.82L20.76 31C20.82 31 21.12 30.96 21.12 31.04C21.12 31.12 20.96 31.22 20.9 31.24L20.68 31.2L20.6 31.14L20.58 31.18C20.58 31.2 20.6 31.24 20.64 31.24C20.64 31.32 20.58 31.4 20.5 31.44C20.42 31.44 20.36 31.38 20.3 31.34C20.3 31.28 20.22 31.26 20.18 31.26L20 31.4L19.88 31.24C19.76 31.36 19.6 31.46 19.46 31.54C19.38 31.54 19.38 31.46 19.38 31.4C19.38 31.38 19.38 31.34 19.34 31.34C19.28 31.34 19.22 31.4 19.22 31.46C19.26 31.48 19.38 31.56 19.38 31.6C19.38 31.62 19.36 31.62 19.36 31.62L19.3 31.6C19.3 31.66 19.26 31.72 19.2 31.72C19.12 31.72 19 31.68 18.94 31.74C18.92 31.74 18.86 31.74 18.86 31.78V31.82C18.78 31.76 18.68 31.68 18.58 31.68C18.54 31.68 18.5 31.74 18.44 31.72L18.38 31.98C18.28 32.02 18.14 32.08 18.04 32.08C17.92 32.08 17.94 31.92 17.94 31.84L17.86 31.76C17.82 31.82 17.78 31.9 17.72 31.94C17.78 31.98 17.94 32.1 17.94 32.18C17.94 32.22 17.88 32.22 17.86 32.22L17.32 32.24C17.32 32.3 17.24 32.28 17.2 32.28C17.14 32.28 17.06 32.36 16.98 32.36L17.06 32.22C17.02 32.18 16.98 32.12 16.92 32.12C16.9 32.12 16.9 32.16 16.9 32.18C16.9 32.26 16.94 32.46 16.82 32.46C16.74 32.42 16.66 32.36 16.66 32.5C16.66 32.5 16.58 32.48 16.58 32.52C16.58 32.56 16.66 32.58 16.7 32.58C16.62 32.7 16.54 32.82 16.44 32.92C16.24 32.92 16.02 32.94 15.82 32.94C15.72 32.94 15.76 33.02 15.74 33.02H15.7C15.64 33.02 15.58 33.06 15.58 33.12C15.48 33.12 14.94 33.02 14.94 33.14C14.88 33.14 14.82 33.16 14.8 33.22C14.74 33.22 14.66 33.26 14.62 33.32C14.58 33.3 14.5 33.3 14.48 33.36C14.4 33.36 14.34 33.38 14.28 33.44L14.1 33.4L14.04 33.48C13.94 33.46 13.88 33.3 13.84 33.5C13.82 33.58 13.82 33.66 13.76 33.7C13.68 33.66 13.56 33.64 13.5 33.7V33.82C13.46 33.86 12.9 34.68 12.9 34.74L12.92 34.78L12.8 35.08C12.78 35.1 12.52 35.64 12.52 35.64C11.9 36.26 11.86 37.44 11.22 38.08C11.34 38.2 11.1 38.36 11.02 38.42L10.88 38.78C10.82 38.84 10.82 38.92 10.76 38.98C10.74 39.08 10.68 39.28 10.54 39.28C10.5 39.28 10.48 39.26 10.48 39.22C10.48 39.18 10.52 39.14 10.54 39.1C10.62 38.9 10.64 38.74 10.84 38.62C10.8 38.56 11 38.32 11 38.24C11 38.22 11 38.2 10.98 38.18L11.14 37.62C11.24 37.52 11.14 37.26 11.32 37.1C11.14 37.14 11.46 36.86 11.48 36.84C11.5 36.72 11.52 36.6 11.6 36.5L11.62 36.3C11.74 36.16 12.04 35.56 11.88 35.4C11.9 35.38 11.94 35.34 11.94 35.32C11.76 35.32 11.58 35.86 11.48 35.86C11.46 35.86 11.42 35.84 11.4 35.82L11.62 35.54C11.54 35.42 11.62 35.18 11.48 35.1C11.64 34.78 11.82 34.46 12 34.14L11.96 33.98C11.84 34.16 11.66 34.34 11.56 34.52C11.56 34.64 11.48 34.64 11.48 34.76L11.3 34.84C11.32 34.7 11.5 34.42 11.5 34.32C11.5 34.3 11.5 34.24 11.46 34.24C11.44 34.24 11.42 34.4 11.42 34.42L11.26 34.46C11.2 34.52 11.16 34.64 11.16 34.74H11.12L11.16 34.84C11.02 34.98 10.94 35.04 10.9 35.24C11 35.18 10.72 35.4 10.66 35.5C10.62 35.5 10.56 35.52 10.56 35.56C10.56 35.7 10.76 35.64 10.76 35.74C10.76 35.9 10.26 36.42 10.26 36.44L10.28 36.48C10.28 36.5 10.26 36.52 10.22 36.52C10.18 36.52 10.16 36.44 10.16 36.4L10.26 36.12C10.28 36.1 10.32 36.06 10.32 36.02C10.32 35.98 10.28 35.94 10.24 35.92C10.34 35.8 10.32 35.7 10.4 35.6C10.42 35.58 10.62 35.32 10.62 35.3C10.62 35.28 10.6 35.28 10.58 35.28H10.56C10.62 35.18 10.68 35.1 10.76 35.02L10.78 34.84C10.84 34.84 10.88 34.66 10.9 34.62L10.88 34.54H10.98C11.02 34.48 11.02 34.4 11.04 34.34C11.04 34.32 11.02 34.32 11.02 34.32C10.92 34.32 10.84 34.72 10.7 34.72C10.64 34.72 10.58 34.68 10.58 34.64C10.58 34.54 10.8 34.46 10.8 34.38C10.8 34.36 10.72 34.34 10.7 34.32C10.72 34.26 10.74 34.2 10.78 34.14C10.7 34.18 10.84 33.88 10.84 33.84L10.62 33.82C10.54 33.86 10.2 34.02 10.12 34.02L10.1 34L10.04 34.1L9.86 34.04L9.82 34.12C9.78 34.02 9.72 34.02 9.7 34.14L9.56 34.22C9.52 34.22 9.48 34.2 9.46 34.16L9.36 34.18C9.36 34.24 9.3 34.24 9.26 34.24C9.14 34.24 9.02 34.22 8.9 34.18C8.66 34.24 8.42 34.28 8.18 34.3C8.16 34.32 8.14 34.38 8.1 34.38C8.08 34.38 8.1 34.34 8.1 34.34V34.3H8.08C7.98 34.36 7.8 34.44 7.7 34.44C7.64 34.44 7.56 34.42 7.54 34.36L7.38 34.34L7.26 34.4C6.98 34.34 6.78 34.44 6.52 34.54L6.32 34.48L6.2 34.6C6.2 34.7 6.08 34.68 6.02 34.64C6.02 34.68 5.98 34.7 5.94 34.7C5.84 34.7 5.74 34.68 5.64 34.64C5.34 34.7 5.02 34.78 4.7 34.74C4.68 34.8 4.6 34.82 4.54 34.82C4.48 34.82 4.4 34.8 4.34 34.78C4.24 34.8 4.2 34.82 4.06 34.82L3.98 34.88L3.84 34.8C3.8 34.74 3.7 34.7 3.64 34.7C3.44 34.7 3.18 34.76 2.98 34.78C2.94 34.78 2.86 34.78 2.86 34.84C2.7 34.84 2.5 34.86 2.36 34.78C2.36 34.74 2.72 34.68 2.78 34.68C2.78 34.62 2.82 34.6 2.86 34.58C2.76 34.56 2.64 34.52 2.54 34.52C2.42 34.52 2.16 34.66 1.96 34.66L1.68 34.64L1.58 34.74L1.36 34.7C1.36 34.68 1.36 34.62 1.32 34.62C1.3 34.62 1.26 34.68 1.24 34.7C1.18 34.7 1.1 34.72 1.08 34.78C0.88 34.76 0.68 34.8 0.48 34.82C0.46 34.82 0.36 34.8 0.36 34.84L0.18 34.82L0.26 34.68L0.38 34.74L0.44 34.64C0.78 34.68 1.1 34.52 1.44 34.56L1.48 34.52C1.74 34.56 2.12 34.44 2.4 34.4L2.14 34.38L2.24 34.22L2.42 34.28L2.48 34.18C2.54 34.18 2.9 34.26 2.92 34.14C3.2 34.08 3.44 34.06 3.72 34.06L3.76 34.02C4.16 34.02 4.36 33.88 4.7 33.78C4.72 33.72 4.78 33.7 4.84 33.7H4.86L4.96 33.62C5.06 33.62 5.08 33.54 5.18 33.54C5.2 33.54 5.28 33.58 5.28 33.52H5.44L5.5 33.44H5.64L5.7 33.36C5.82 33.34 5.92 33.34 6.04 33.34L6.12 33.28C6.14 33.28 6.26 33.26 6.26 33.22C6.26 33.2 6.24 33.2 6.22 33.2C6.14 33.2 6.06 33.24 6 33.28C5.82 33.26 5.28 33.32 5.16 33.4H5L4.98 33.5C4.84 33.52 4.7 33.5 4.56 33.52L4.54 33.46H4.52C4.5 33.46 4.48 33.48 4.48 33.5C4.48 33.52 4.48 33.52 4.5 33.52ZM19.92 21.1C19.92 20.96 20 20.62 19.78 20.58L19.72 20.76C19.86 20.76 19.7 20.9 19.66 20.92L19.64 21.02C19.64 21.06 19.66 21.1 19.7 21.1C19.68 21.24 19.58 21.26 19.58 21.4C19.58 21.44 19.6 21.48 19.66 21.48C19.74 21.48 19.78 21.2 19.84 21.12L19.9 21.24C19.88 21.34 19.84 21.46 19.78 21.54C19.78 21.64 19.72 21.7 19.72 21.8C19.72 21.82 19.52 22.12 19.52 22.14C19.36 22.12 19.44 22.3 19.36 22.3H19.34C19.3 22.38 19.22 22.48 19.22 22.56C19.22 22.62 19.24 22.66 19.28 22.7L19.1 22.8V23.06L18.84 23.54C18.78 23.58 18.78 23.66 18.78 23.72C18.78 23.94 18.42 24.08 18.4 24.26C18.34 24.32 18.32 24.4 18.32 24.48L18.24 24.54V24.7L18.1 24.78L18.04 25.12L17.84 25.2C17.82 25.26 17.74 25.6 17.7 25.62L17.64 25.58L17.66 25.72L17.56 26C17.54 26 17.46 26.02 17.46 26.06H17.5C17.5 26.12 17.46 26.22 17.42 26.26C17.42 26.28 17.42 26.3 17.4 26.3C17.14 26.3 17.28 26.68 17.08 26.9L16.88 26.88C16.86 26.92 16.86 26.94 16.86 26.98C16.86 27.02 16.88 27.04 16.92 27.04C16.88 27.14 16.8 27.44 16.72 27.5C16.7 27.58 16.64 27.62 16.62 27.7L16.52 27.8C16.52 27.98 16.46 28.06 16.46 28.18C16.44 28.24 16.38 28.3 16.32 28.32C16.28 28.4 16.24 28.5 16.24 28.58C16.3 28.58 16.42 28.58 16.46 28.66C16.56 28.66 16.58 28.58 16.68 28.6C16.82 28.46 17.1 28.6 17.1 28.52C17.1 28.5 17.08 28.48 17.12 28.48C17.2 28.48 17.28 28.46 17.3 28.36C17.42 28.38 17.68 28.36 17.74 28.26C17.82 28.26 18.12 28.26 18.12 28.14L18.5 27.98C18.58 27.98 18.8 27.96 18.8 27.86C18.9 27.84 19.2 27.82 19.22 27.7C19.78 27.5 19.98 27.26 20.52 27C20.54 26.9 20.72 26.9 20.8 26.9H20.84C20.92 26.78 21.12 26.72 21.12 26.56C21.16 26.58 21.24 26.58 21.24 26.52V26.48L21.42 26.3C21.52 26.3 22.08 25.9 22.08 25.78L22.4 25.52C22.42 25.4 23.1 24.82 23.1 24.64C23.08 24.6 22.96 24.36 23.06 24.36H23.08C23.58 23.6 23.58 22.96 23.68 22.1C23.62 22.06 23.62 21.98 23.62 21.92L23.48 21.8C23.48 21.74 23.46 21.66 23.4 21.62C23.44 21.52 23.18 21.28 23.12 21.22C22.98 21.2 22.96 20.96 22.8 20.96C22.8 20.9 22.74 20.86 22.68 20.86C22.68 20.72 22.52 20.82 22.52 20.7L21.94 20.52C21.76 20.46 20.98 20.34 20.98 20.2V20.18C20.9 20.18 20.8 20.14 20.76 20.06C20.7 20.16 20.62 20.26 20.52 20.3L20.3 20.28C20.3 20.36 20.3 20.76 20.2 20.76C20.02 20.76 20.14 21.1 19.94 21.1H19.92ZM26.2 26.12L26.08 26.28C25.94 26.28 26.04 26.44 25.92 26.44L25.64 26.68C25.64 26.84 25.44 26.92 25.3 26.96V27C25.3 27.18 25.2 27.3 25.2 27.4V27.42L25 27.6L25.24 27.58C25.26 27.44 25.4 27.28 25.5 27.18L25.44 27.12L25.52 27.04C25.52 27.02 25.52 27 25.54 27C25.56 27 25.6 27.14 25.62 27.18C25.64 27.12 25.72 27.12 25.76 27.14L25.9 27.04C25.9 27.04 26.54 25.7 26.54 25.66C26.54 25.6 26.52 25.54 26.44 25.54L26.32 25.42C26.22 25.56 26.04 25.84 26.04 26C26.04 26.1 26.14 26.12 26.2 26.12ZM18.04 24.1C18.04 24.02 18 23.96 17.92 23.96C17.86 23.96 17.8 24 17.8 24.06C17.8 24.1 17.82 24.14 17.86 24.14C17.9 24.14 17.94 24.12 17.96 24.1L18.02 24.26C18.02 24.32 18.06 24.44 18.14 24.44C18.2 24.44 18.22 24.38 18.22 24.32L18.24 24.24C18.24 24.18 18.2 24.12 18.2 24.06C18.24 24.12 18.34 24.2 18.34 24.06L18.42 24.04L18.54 23.9C18.5 23.64 18.98 23.14 18.98 22.92C18.98 22.8 19.1 22.74 19.1 22.66C19.1 22.64 19.08 22.62 19.06 22.62L18.9 22.8C18.86 22.8 18.84 22.82 18.84 22.86C18.84 22.92 18.84 22.98 18.76 22.98L18.54 23.46C18.44 23.46 18.48 23.54 18.38 23.54C18.36 23.72 18.24 23.82 18.22 23.98C18.06 23.92 18.18 24.1 18.08 24.1H18.04ZM27.34 22.26C27.1 22.24 27.08 23.42 27.08 23.48L27.06 23.64C27.06 23.72 27.1 23.78 27.14 23.82C27.26 23.84 27.26 23.52 27.26 23.46C27.32 23.06 27.32 22.66 27.34 22.26ZM23.18 29.52L23.32 29.62H23.34C23.56 29.62 23.6 29.22 23.76 29.22H23.78C24 29.12 24.12 28.96 24.3 28.8V28.7C24.28 28.72 24.22 28.72 24.2 28.72C24.12 28.8 23.82 29.12 23.72 29.12C23.7 29.12 23.68 29.12 23.68 29.08V29.06C23.56 29.06 23.6 29.1 23.56 29.18C23.5 29.16 23.42 29.16 23.4 29.24C23.3 29.3 23.18 29.4 23.18 29.52ZM19.28 30.82C19.28 30.9 19.3 30.94 19.38 30.94C19.6 30.94 19.76 30.8 19.94 30.7C20.06 30.74 20.16 30.62 20.24 30.56C20.3 30.58 20.38 30.6 20.38 30.52L20.48 30.42L20.4 30.38C20.4 30.36 20.4 30.32 20.36 30.32C20.3 30.32 20.18 30.44 20.14 30.48L19.7 30.6C19.56 30.64 19.66 30.8 19.46 30.78C19.44 30.82 19.4 30.84 19.36 30.84L19.28 30.82ZM26.76 24.62C26.74 24.84 26.64 25.04 26.64 25.26C26.64 25.32 26.68 25.34 26.74 25.34H26.8C26.82 25.16 26.88 25.22 27.02 25.2L26.98 25.02C27.04 25 27.06 24.94 27.06 24.88L27 24.86V24.64L26.76 24.62ZM23.18 29.52C23.04 29.54 22.44 29.86 22.44 29.98L22.14 30.08C22.14 30.08 22.14 30.12 22.12 30.12C22.08 30.12 22.04 30 22 30C21.98 30 21.98 30.02 21.98 30.04C22.02 30.12 22.06 30.22 22.04 30.3L22.22 30.16C22.3 30.18 22.44 30.2 22.44 30.08C22.52 30.1 22.68 30.12 22.68 30C22.76 29.96 22.84 29.88 22.86 29.8L23.02 29.68C23.02 29.66 23.04 29.62 23.06 29.62C23.14 29.62 23.18 29.62 23.18 29.52ZM15.22 31.98C15.22 32.2 14.76 32.18 14.62 32.18C14.44 32.18 14.38 32.06 14.36 32.32C14.52 32.34 14.66 32.36 14.82 32.36C14.86 32.36 15.14 32.26 15.14 32.2C15.26 32.24 15.28 32.16 15.38 32.16C15.44 32.16 15.54 32.18 15.6 32.14C15.6 32.1 15.28 32 15.22 31.98ZM19.44 20.58C19.42 20.8 19.3 20.74 19.2 20.88L19.12 21.16C19.1 21.22 19.22 21.24 19.26 21.24C19.28 21.14 19.34 21.16 19.34 21.06L19.52 20.92C19.54 20.84 19.6 20.86 19.62 20.76L19.44 20.58ZM15.4 32.6C15.26 32.7 15.1 32.76 14.96 32.86C14.82 32.86 14.76 32.96 14.66 32.96C14.64 32.96 14.58 32.94 14.58 33C14.58 33.02 14.62 33.14 14.68 33.14V33.1L15.18 32.9C15.2 32.86 15.24 32.86 15.28 32.86H15.32L15.4 32.78C15.44 32.78 15.48 32.78 15.48 32.74C15.48 32.68 15.44 32.64 15.4 32.6ZM18.92 30.8C18.94 30.88 18.92 30.96 18.82 30.96V30.98C18.82 31.08 18.92 31.08 19 31.08C19.16 31.08 19.22 30.94 19.28 30.82C19.28 30.76 19.24 30.7 19.18 30.7C19.08 30.7 19 30.76 18.92 30.8ZM16.16 27.08L16 27.24C15.98 27.32 15.92 27.32 15.9 27.4C15.9 27.44 15.9 27.48 15.84 27.48H15.82L15.64 27.64V27.66C15.64 27.7 15.64 27.78 15.68 27.8C15.74 27.8 16.04 27.4 16.12 27.32L16.14 27.14L16.22 27.04V26.98C16.22 26.98 16.22 26.92 16.2 26.92C16.18 26.92 16.16 27.06 16.16 27.08ZM17.06 26.02C16.96 26.12 16.88 26.26 16.88 26.4C16.88 26.44 16.9 26.5 16.94 26.54C17.02 26.54 17.04 26.4 17.04 26.36C17.08 26.24 17.16 26.12 17.26 26.04C17.28 26.04 17.28 26.04 17.28 26.02C17.28 25.98 17.18 25.92 17.14 25.92C17.08 25.92 17.06 25.98 17.06 26.02ZM17.62 31.28C17.52 31.36 17.58 31.36 17.42 31.36L17.32 31.56L17.68 31.44L17.86 31.66C17.92 31.66 17.92 31.6 17.92 31.56V31.5L17.62 31.28ZM20.22 19.88C20.22 20.06 20.06 20.02 20.06 20.16C19.98 20.14 19.96 20.2 19.96 20.26C19.96 20.3 19.96 20.42 20.02 20.42C20.04 20.42 20.04 20.38 20.04 20.36C20.12 20.34 20.2 20.28 20.22 20.18C20.28 20.14 20.3 20.04 20.3 19.98L20.22 19.88ZM19.46 21.6C19.32 21.58 19.3 21.78 19.28 21.88C19.22 21.94 19.18 22.02 19.18 22.12C19.18 22.14 19.18 22.18 19.2 22.18C19.24 22.18 19.26 22.08 19.26 22.06C19.32 22.04 19.36 21.96 19.36 21.9C19.5 21.84 19.42 21.62 19.52 21.62C19.6 21.62 19.64 21.64 19.64 21.54L19.46 21.6ZM17.32 31.62C17.32 31.72 17.12 31.68 17.06 31.68C17.1 31.74 17 31.76 16.96 31.76L16.94 31.8C16.94 31.84 16.98 31.86 17 31.86H17.12C17.26 31.86 17.36 31.78 17.5 31.8L17.32 31.62ZM18.34 31.06L18.06 31.16V31.26H18.24C18.3 31.26 18.48 31.2 18.54 31.18C18.5 31.12 18.44 31.02 18.36 31.02C18.34 31.02 18.34 31.04 18.34 31.06ZM18.48 32.16C18.46 32.12 18.4 32.08 18.4 32.02C18.4 32.02 18.62 31.92 18.66 31.92C18.7 31.92 18.8 31.92 18.8 31.96C18.8 32.06 18.6 32.16 18.52 32.16H18.48ZM13.44 25.2C13.3 25.2 13.18 25.68 13.14 25.8C13.22 25.8 13.26 25.72 13.26 25.64V25.62C13.38 25.64 13.42 25.28 13.44 25.2ZM21.44 30.3C21.38 30.3 21.34 30.34 21.34 30.4C21.34 30.44 21.4 30.58 21.44 30.58C21.46 30.58 21.46 30.56 21.46 30.56C21.52 30.5 21.6 30.42 21.6 30.34C21.6 30.32 21.58 30.32 21.56 30.32C21.54 30.3 21.5 30.2 21.48 30.2C21.44 30.2 21.44 30.28 21.44 30.3ZM26.74 25.98C26.7 25.98 26.66 26 26.66 26.06C26.66 26.12 26.7 26.22 26.6 26.22L26.48 26.4L26.52 26.48C26.6 26.38 26.74 26.22 26.74 26.1L26.82 26C26.82 25.98 26.82 25.9 26.78 25.9C26.74 25.9 26.74 25.96 26.74 25.98ZM12.86 26.16C12.74 26.16 12.8 26.34 12.78 26.42L12.72 26.5L12.78 26.6L12.86 26.54C12.86 26.26 12.94 26.26 12.96 26.12L12.86 26.16ZM17.58 24.14L17.84 23.84C17.82 23.76 17.86 23.66 17.92 23.6H17.88C17.78 23.6 17.6 24.02 17.58 24.14ZM16.26 27.52C16.22 27.56 16.18 27.6 16.18 27.64C16.18 27.68 16.22 27.68 16.24 27.68C16.22 27.76 16.32 27.8 16.38 27.8L16.4 27.6L16.26 27.52ZM25.56 27.58C25.56 27.68 25.46 27.72 25.38 27.74L25.3 27.86L25.46 27.88C25.46 27.78 25.56 27.7 25.64 27.66L25.7 27.56L25.56 27.58ZM16.26 28.76L16.14 28.74C16.08 28.74 16.06 28.8 16.06 28.86C16.06 28.88 16.1 28.98 16.12 28.98C16.14 28.98 16.14 28.96 16.14 28.94C16.2 28.9 16.24 28.82 16.26 28.76ZM6.44 33.24L6.4 33.36L6.56 33.4L6.64 33.34L6.66 33.26L6.44 33.24ZM17.42 23.82C17.36 23.86 17.24 23.98 17.24 24.06C17.24 24.1 17.28 24.1 17.3 24.1L17.4 23.96C17.44 23.96 17.46 23.96 17.46 23.92C17.46 23.88 17.44 23.84 17.42 23.82ZM18.48 32.16C18.38 32.22 18.22 32.3 18.1 32.3C18.08 32.3 18.04 32.3 18.04 32.26C18.16 32.22 18.32 32.16 18.46 32.16H18.48ZM20.6 30.86C20.56 30.86 20.38 30.9 20.38 30.96C20.38 31.02 20.48 31.02 20.52 31.02L20.6 30.86ZM18.2 23C18.2 23 18.14 22.98 18.14 23C18.14 23.04 18.18 23.04 18.2 23.04C18.26 23.04 18.3 23 18.3 22.94C18.3 22.88 18.3 22.82 18.28 22.78C18.24 22.78 18.2 22.98 18.2 23ZM20.94 30.52C20.86 30.52 20.86 30.66 20.84 30.72L20.9 30.64C20.92 30.64 21.02 30.64 21.02 30.6C21.02 30.56 20.98 30.52 20.94 30.52ZM26.8 24.34V24.42C26.8 24.52 26.88 24.52 26.96 24.54C26.94 24.46 26.86 24.38 26.8 24.34ZM7.3 32.82L7.14 32.88L7.12 32.94C7.12 32.98 7.14 33 7.18 33.02L7.3 32.82ZM14.92 22.06C14.9 22.06 14.84 22.06 14.84 22.08C14.84 22.1 14.9 22.14 14.92 22.14L14.98 22.08C14.98 22.06 14.98 21.92 14.94 21.92C14.92 21.92 14.92 22.04 14.92 22.06ZM4.36 33.52L4.26 33.72C4.22 33.72 4.22 33.68 4.22 33.64C4.22 33.56 4.28 33.52 4.36 33.52ZM25.02 28.1L24.9 28.2C24.9 28.22 24.9 28.26 24.92 28.26C24.94 28.26 24.94 28.22 24.94 28.2L25.1 28.1C25.1 28.08 25.1 28.02 25.06 28.02C25.04 28.02 25.02 28.08 25.02 28.1ZM24.12 28.22C24.12 28.28 24.14 28.38 24.2 28.38C24.24 28.38 24.26 28.36 24.28 28.34L24.12 28.22ZM15.88 32.44V32.46C15.88 32.54 15.96 32.56 16.02 32.56V32.54C16.02 32.46 15.94 32.44 15.88 32.44ZM24.6 28.5L24.46 28.6C24.46 28.62 24.46 28.64 24.48 28.64C24.5 28.64 24.52 28.58 24.52 28.58C24.58 28.6 24.64 28.56 24.64 28.5C24.64 28.48 24.64 28.42 24.62 28.42C24.6 28.42 24.6 28.48 24.6 28.5ZM16.52 27.12V27.16C16.52 27.18 16.5 27.26 16.54 27.26C16.56 27.26 16.6 27.2 16.6 27.18H16.68C16.68 27.16 16.54 27.12 16.52 27.12ZM15.74 32.5L15.64 32.72L15.78 32.62C15.78 32.58 15.76 32.54 15.74 32.5ZM17.58 24.14C17.5 24.2 17.48 24.3 17.46 24.4C17.52 24.32 17.56 24.24 17.58 24.14ZM18.86 31.22V31.24C18.86 31.28 18.88 31.32 18.92 31.32C18.96 31.32 19 31.3 19 31.26L18.86 31.22ZM6.08 32.68V32.7C6.08 32.74 6.12 32.76 6.16 32.76C6.2 32.76 6.22 32.74 6.22 32.7L6.08 32.68ZM19 21.38C18.98 21.38 18.92 21.4 18.92 21.44C18.92 21.46 18.94 21.48 18.96 21.48C19 21.48 19 21.44 19 21.42L19.08 21.3L19 21.38ZM6.6 32.72C6.6 32.76 6.62 32.8 6.68 32.8C6.7 32.8 6.72 32.78 6.72 32.76C6.72 32.72 6.68 32.72 6.64 32.72H6.6ZM6.82 33.18V33.2C6.82 33.22 6.82 33.26 6.86 33.26H6.94C6.94 33.2 6.86 33.18 6.82 33.18ZM16.14 27.86L16.22 27.94C16.26 27.94 16.3 27.92 16.3 27.88L16.14 27.86ZM13.52 24.76C13.52 24.8 13.52 24.86 13.58 24.86C13.6 24.86 13.6 24.84 13.6 24.82C13.6 24.78 13.58 24.76 13.54 24.76H13.52ZM17.28 24.64L17.26 24.68C17.26 24.7 17.28 24.74 17.3 24.74C17.34 24.74 17.36 24.7 17.36 24.68L17.28 24.64ZM15.66 29.38C15.66 29.4 15.66 29.46 15.7 29.46C15.74 29.46 15.74 29.4 15.74 29.38C15.74 29.36 15.72 29.36 15.72 29.36L15.66 29.38ZM16.46 25.84C16.46 25.86 16.46 25.92 16.5 25.92C16.52 25.92 16.54 25.88 16.54 25.86C16.54 25.84 16.54 25.82 16.5 25.82C16.5 25.82 16.48 25.84 16.46 25.84ZM16.72 25.48V25.52C16.72 25.54 16.72 25.58 16.76 25.58C16.78 25.58 16.8 25.56 16.8 25.54C16.8 25.5 16.78 25.48 16.74 25.48H16.72ZM17.98 28.42C17.98 28.44 18 28.48 18.04 28.48C18.06 28.48 18.06 28.46 18.06 28.44C18.06 28.42 18.04 28.38 18.02 28.38C18 28.38 17.98 28.4 17.98 28.42ZM15.12 21.6C15.12 21.62 15.14 21.68 15.16 21.68C15.2 21.68 15.2 21.64 15.2 21.62C15.2 21.6 15.18 21.58 15.16 21.58L15.12 21.6ZM16.92 28.9V28.94C16.92 28.96 16.92 28.98 16.96 28.98C16.98 28.98 17 28.94 17 28.92C17 28.9 17 28.9 16.96 28.9H16.92ZM12.68 26V26.02C12.68 26.06 12.68 26.08 12.72 26.08C12.74 26.08 12.76 26.06 12.76 26.04C12.76 26.02 12.74 26 12.72 26H12.68ZM7.12 32.62V32.64C7.12 32.68 7.12 32.7 7.16 32.7C7.18 32.7 7.18 32.7 7.2 32.68C7.2 32.64 7.16 32.62 7.12 32.62ZM18.52 31.3C18.52 31.32 18.54 31.38 18.58 31.38C18.6 31.38 18.6 31.36 18.6 31.34C18.6 31.3 18.58 31.3 18.54 31.3H18.52ZM13.36 24.68C13.36 24.7 13.36 24.74 13.4 24.74H13.44C13.44 24.7 13.42 24.66 13.38 24.66L13.36 24.68ZM15.84 28.88V28.92C15.84 28.94 15.86 28.96 15.9 28.96H15.92C15.92 28.92 15.88 28.88 15.84 28.88ZM16.64 28.78L16.62 28.82C16.62 28.84 16.64 28.86 16.66 28.86C16.68 28.86 16.7 28.82 16.7 28.8C16.7 28.78 16.68 28.78 16.66 28.78H16.64ZM16.84 25.28V25.32C16.84 25.34 16.84 25.38 16.86 25.38C16.88 25.38 16.9 25.36 16.9 25.34C16.9 25.32 16.88 25.28 16.86 25.28H16.84ZM17.58 25.32C17.58 25.34 17.6 25.38 17.62 25.38C17.64 25.38 17.64 25.36 17.64 25.34C17.64 25.32 17.64 25.28 17.6 25.28C17.58 25.28 17.58 25.3 17.58 25.32ZM12.42 27.1C12.42 27.14 12.44 27.18 12.48 27.18C12.5 27.18 12.5 27.16 12.5 27.14V27.12L12.42 27.1ZM3.86 34.64C3.86 34.66 3.84 34.7 3.84 34.72C3.84 34.74 3.88 34.74 3.9 34.74V34.7C3.9 34.68 3.88 34.64 3.86 34.64ZM7.26 33.06L7.38 33.18V33.16C7.38 33.1 7.32 33.06 7.26 33.06ZM17.68 28.52C17.68 28.56 17.7 28.58 17.72 28.6C17.76 28.6 17.76 28.56 17.76 28.54L17.68 28.52ZM16.2 32.48C16.18 32.48 16.18 32.56 16.18 32.56L16.14 32.64L16.22 32.56C16.22 32.54 16.22 32.48 16.2 32.48ZM17.52 28.62C17.52 28.64 17.54 28.7 17.56 28.7C17.6 28.7 17.6 28.66 17.6 28.64L17.52 28.62ZM16.78 28.7C16.78 28.74 16.82 28.76 16.86 28.76H16.88C16.88 28.72 16.84 28.7 16.8 28.7H16.78ZM16.98 24.96C16.98 25.04 17 25.02 17.06 25.04C17.06 25 17.02 24.96 16.98 24.96ZM26.2 19.36V19.38C26.2 19.4 26.2 19.44 26.24 19.44C26.26 19.44 26.26 19.4 26.26 19.38C26.26 19.36 26.26 19.36 26.24 19.36H26.2ZM7.8 32.44H7.86C7.86 32.42 7.84 32.36 7.8 32.36V32.44ZM17.1 28.84L17.12 28.92C17.14 28.92 17.16 28.84 17.16 28.82C17.14 28.82 17.12 28.82 17.1 28.84ZM2.62 34.36C2.58 34.36 2.44 34.34 2.44 34.4C2.5 34.38 2.54 34.38 2.6 34.38L2.62 34.36ZM17.06 24.82C17.06 24.86 17.08 24.88 17.12 24.88H17.14C17.14 24.84 17.1 24.82 17.06 24.82ZM7.1 33.1C7.06 33.1 7.1 33.22 7.12 33.24C7.12 33.2 7.1 33.1 7.1 33.1ZM6.4 32.62C6.4 32.64 6.38 32.64 6.38 32.66C6.38 32.68 6.38 32.68 6.4 32.7C6.42 32.7 6.44 32.66 6.44 32.64L6.4 32.62ZM17.84 28.42C17.84 28.46 17.86 28.52 17.9 28.52C17.9 28.48 17.88 28.44 17.84 28.42ZM17.38 28.68C17.38 28.74 17.4 28.74 17.44 28.76C17.44 28.72 17.42 28.7 17.38 28.68ZM12.22 33.54L12.18 33.6C12.2 33.58 12.22 33.56 12.22 33.54ZM6.4 31.82L6.38 31.88C6.4 31.86 6.4 31.84 6.4 31.82ZM34.2347 30.98C34.1547 31.02 34.0747 31.04 33.9947 31.06C33.9947 31.18 34.0347 31.32 34.0747 31.44L33.9347 31.54L33.5147 31.64C33.5147 31.54 33.5147 31.44 33.4947 31.34C33.3747 31.4 33.2347 31.44 33.1147 31.46L33.0947 31.54L33.1347 31.66L32.9547 31.76L32.8747 31.6L32.8947 31.52L32.7547 31.68L32.5347 31.7L32.4947 31.74L32.2947 31.8L32.2547 31.88L31.9747 31.94L31.8547 32.06L31.5547 32.16C31.4747 32.26 31.2547 32.34 31.1147 32.34L31.0347 32.42C30.8347 32.48 30.6347 32.58 30.4147 32.58C30.2547 32.72 30.0747 32.78 29.8947 32.88H29.6347L29.4547 32.96H29.4147C29.4147 32.96 29.4547 33 29.4147 33C29.3347 33 29.1947 33.04 29.1747 33.14L28.8947 33.18L28.7747 33.26L28.4347 33.32L28.3547 33.42C28.2547 33.46 28.1347 33.5 28.0147 33.5L27.9347 33.58C27.8747 33.56 27.7147 33.52 27.7147 33.62C27.5747 33.68 27.4147 33.7 27.2747 33.7C27.1147 33.82 26.9347 33.88 26.7547 33.96L26.4947 33.94C26.3747 34.02 26.1147 34.04 25.9747 34.04C25.8947 34.1 25.7747 34.14 25.6747 34.14L25.5747 34.12C25.4947 34.16 25.4347 34.22 25.3547 34.22L25.2547 34.28C25.2547 34.38 25.0347 34.36 24.9747 34.36L24.9147 34.42C24.8347 34.42 24.7147 34.36 24.7147 34.48L24.3147 34.56L24.0547 34.72C24.0347 34.76 23.9547 34.76 23.9147 34.76L23.6347 34.78L23.4747 34.86H23.1947L22.9547 34.96L22.7747 34.94L22.5747 35.02C22.3347 35.02 22.1747 35.08 21.9347 35.1C21.9347 35.14 21.8747 35.14 21.8547 35.14C21.7347 35.14 21.6347 35.12 21.5147 35.14C21.4947 35.22 21.1147 35.28 21.0147 35.28C20.5147 35.28 19.9947 35.24 19.4947 35.2C19.4947 35.28 19.4147 35.32 19.3547 35.3C19.2747 35.34 19.1747 35.36 19.0947 35.36C19.0347 35.36 18.9947 35.34 18.9947 35.28C18.9947 35.24 19.0147 35.18 18.9347 35.18C18.8947 35.18 18.6947 35.28 18.6947 35.2C18.6947 35.14 18.7347 35.06 18.7547 35.02H19.0347L19.2347 34.94C19.4547 34.96 19.3147 34.78 19.4547 34.78C19.5747 34.78 19.7547 34.84 19.8747 34.86L20.2947 34.7L20.3147 34.62L20.4547 34.64C20.5347 34.56 21.1347 34.5 21.2747 34.48C21.3147 34.44 21.3947 34.44 21.4547 34.44C21.4547 34.28 21.5947 34.34 21.5947 34.28C21.2947 34.42 20.6147 34.36 20.4547 34.52C20.4147 34.52 20.3147 34.5 20.2747 34.54C20.1947 34.52 19.3547 34.56 19.3547 34.74C18.9747 34.72 18.6347 34.86 18.2547 34.86C18.2147 35.04 17.9147 34.98 17.7947 34.96C17.8147 35.02 17.6547 35.02 17.6347 35.02C17.5547 35.02 17.4747 35.02 17.4547 35.1L15.9747 35.18C15.9747 35.2 15.9547 35.24 15.9347 35.24C15.8747 35.24 15.8147 35.16 15.8147 35.1C15.8147 35.06 15.8547 35.04 15.8947 35.04H16.1747C16.1747 34.92 16.9747 34.86 17.1747 34.78C17.1947 34.78 17.3347 34.8 17.3347 34.76C17.3347 34.7 17.2347 34.64 17.2347 34.56C17.2347 34.54 17.2547 34.52 17.2747 34.5C17.6547 34.52 18.2347 34.46 18.5947 34.28L18.7747 34.3L19.1147 34.18L19.1747 34.08C19.2947 34.1 19.4347 34.06 19.5547 34.04C19.4947 34.12 19.6347 34.06 19.6347 34.04L19.6147 33.9C20.1547 33.98 19.9347 33.96 20.3747 33.76C20.5947 33.76 20.8547 33.54 21.0547 33.54L21.0747 33.5C21.0747 33.48 20.8147 33.46 20.7547 33.46C20.7547 33.64 20.2947 33.58 20.2947 33.68C20.1747 33.68 20.0747 33.64 19.9947 33.74C19.4747 33.76 19.5147 33.74 19.0947 33.92L18.8747 33.8C18.7147 33.82 18.7147 33.96 18.5747 33.96C18.5147 33.96 18.3747 33.9 18.3147 33.88C18.1147 33.82 18.3947 34.2 17.7947 34C17.7747 34.02 17.7547 34.06 17.7147 34.06V33.98C17.5347 33.98 17.3747 33.9 17.1947 33.9L17.3147 33.8C17.3747 33.8 17.6347 33.78 17.6347 33.72L17.8747 33.76C18.0947 33.72 18.3547 33.68 18.5547 33.6V33.52C18.5547 33.48 18.5347 33.42 18.4747 33.42C18.4547 33.28 18.3147 33.4 18.3147 33.26H17.9947L18.0747 33.12C18.2547 33.12 17.9747 32.98 18.3947 32.98L18.4947 32.9C18.5747 32.88 18.6547 32.88 18.7347 32.84C18.8947 32.86 18.8947 32.72 18.9947 32.72C19.2747 32.72 19.5747 32.48 19.9147 32.48V32.4C19.9547 32.4 20.2547 32.4 20.2547 32.32C20.2747 32.32 20.3947 32.34 20.3947 32.28H20.5747L20.6347 32.22H20.7947L20.8147 32.16C20.9547 32.14 20.8347 32 20.9747 32C21.0747 31.9 21.3347 31.88 21.4547 31.84C21.5347 31.86 21.5947 31.88 21.6547 31.94L21.8147 31.84C21.7947 31.78 21.8347 31.76 21.8947 31.76L21.9547 31.78C21.9547 31.76 21.9547 31.64 22.0147 31.64C22.0347 31.64 22.0547 31.7 22.0747 31.72C22.2547 31.74 22.3947 31.62 22.5747 31.62C22.6347 31.5 22.8347 31.54 22.9347 31.54V31.48C22.9747 31.48 23.0747 31.48 23.0747 31.42C23.1747 31.42 23.2347 31.36 23.2947 31.36H23.3347L23.5347 31.26L23.5947 31.18C23.6747 31.18 23.7347 31.12 23.8147 31.1C23.8747 31.04 23.9747 31.02 24.0547 31L24.1747 31.02L24.2347 31L24.2747 30.92L24.4147 30.94V30.88L24.5547 30.82C24.5547 30.78 24.5747 30.74 24.5947 30.74C24.6147 30.74 24.6347 30.76 24.6347 30.76C24.9547 30.62 25.4547 30.42 25.6347 30.42V30.36C26.1147 30.24 26.4947 29.94 26.9747 29.84L27.0947 29.88L27.1747 29.84L27.2147 29.76L27.3947 29.78L27.6147 29.6C27.7347 29.56 28.0547 29.56 28.0147 29.42L28.1347 29.44L28.2347 29.42L28.3347 29.26C28.4147 29.2 28.5547 29.32 28.6547 29.32L28.6747 29.26C28.8147 29.16 28.9747 29.1 29.1347 29.06C29.2547 28.96 29.4347 28.94 29.5747 28.88L29.6347 28.8H29.8147C29.9147 28.72 30.0147 28.66 30.1347 28.64V28.56L30.5747 28.5L30.7547 28.34H30.8547L30.8947 28.26L31.0747 28.24L31.1747 28.08C31.4347 28.02 31.7147 27.92 31.8947 27.7C32.0347 27.66 32.1747 27.6 32.2947 27.52V27.48C32.4147 27.44 32.5347 27.36 32.6147 27.26C32.6947 27.28 33.0147 27.16 33.0947 27.1L33.1947 26.96C33.3147 26.92 33.4547 26.8 33.5347 26.7L33.5747 26.5L33.7747 26.4L33.8947 26.42L34.0347 26.24H34.0747C34.1347 26.06 34.3947 25.72 34.5147 25.58H34.6947L34.8347 25.42C34.8347 25.36 34.8547 25.3 34.8547 25.26L34.8947 25.24C34.8347 25.04 34.6947 24.88 34.6147 24.7C34.4547 24.66 34.3147 24.58 34.1547 24.56C33.6347 24.26 33.0747 24.1 32.5947 23.74H32.3947C32.3347 23.7 32.2547 23.68 32.1747 23.66L32.0747 23.52H32.0547L31.9147 23.4L32.0147 23.28C32.0947 23.3 32.1947 23.34 32.2547 23.4H32.5547L32.6547 23.22L32.5147 23.16L32.1747 23.18C32.0347 23.04 31.8947 22.88 31.7747 22.72L31.5547 22.66C31.3147 22.42 31.0347 22.44 30.7347 22.36L30.6947 22.28L30.6547 22.36L30.8347 22.44L30.9747 22.6H31.0347L31.1947 22.66L31.3947 22.64L31.5747 22.82L31.7747 22.8L31.7947 23V23.02L31.5947 22.96L31.5547 23.16L31.4947 23.2C31.3947 23.18 31.0747 23.04 31.0147 23.06L30.9347 22.9H30.7947C30.6347 22.84 30.4947 22.72 30.3547 22.64C30.4147 22.58 30.5147 22.52 30.5547 22.44C30.3947 22.36 30.2147 22.36 30.0347 22.32C29.9947 22.32 29.9147 22.34 29.8747 22.36C29.7947 22.3 29.6747 22.18 29.5947 22.16L29.4747 22.02L29.3347 22.12L29.1747 21.94L29.1947 21.78C29.1347 21.64 29.0547 21.5 28.9547 21.38V21.34L28.8947 21.52L29.0547 21.66V21.84C28.9347 21.68 28.7547 21.58 28.6147 21.42C28.5547 21.32 28.5147 21.14 28.5347 21.02L28.3747 20.96C28.3547 20.82 28.2947 20.68 28.2147 20.56L28.1947 20.36C28.2147 20.32 28.1147 20.32 28.0947 20.32V20.16C28.1947 19.96 28.3547 19.74 28.3147 19.5L28.4147 19.32C28.3947 19.28 28.4747 19.12 28.4947 19.08L28.6947 19H28.7147L28.6747 18.9L28.7947 18.82L28.8547 18.68C28.9547 18.62 29.0747 18.54 29.1547 18.44L29.2347 18.2L29.5947 18.04C29.6947 17.88 29.8347 17.62 30.0747 17.62C30.2347 17.4 30.4547 17.3 30.6947 17.2L30.6747 17.18C30.9747 17 31.2947 16.8 31.5947 16.64L31.8147 16.62L31.9947 16.5C32.0347 16.52 32.2147 16.44 32.2547 16.42L32.3547 16.32C32.9947 16.2 33.3147 16.04 33.8947 15.76H34.1747L34.3547 15.62C34.4547 15.64 34.5747 15.6 34.6747 15.56L34.8947 15.6L35.0347 15.5L35.1347 15.6C35.2347 15.6 35.5147 15.44 35.6747 15.42C36.8347 15.22 38.0547 15.24 39.2347 15.12L39.2547 15.18C39.6547 15.12 40.0547 15.14 40.4547 15.08L41.5147 15.18C41.7947 15.18 42.0547 15.16 42.3147 15.18L42.2347 15.3C42.1347 15.3 42.0147 15.28 41.9347 15.36C41.4947 15.38 41.1347 15.34 40.7347 15.56L40.5147 15.52V15.64L40.4147 15.7L40.3147 15.6C40.2147 15.64 40.0947 15.7 40.0147 15.78H39.9147L39.7547 15.92L39.7747 16.12H39.9947V16.18L40.1347 16.26L39.9547 16.38H39.7347C39.5547 16.38 39.3947 16.42 39.2147 16.42L39.1947 16.54L39.2947 16.6C39.3947 16.58 39.5347 16.58 39.6347 16.58L39.5147 16.72C39.4147 16.76 39.2947 16.78 39.1747 16.76L38.9747 16.86L39.0347 16.92C39.3347 16.9 39.6547 16.8 39.9547 16.88C40.0347 16.94 40.1347 17 40.1947 17.08L40.3947 17.04L40.5147 17.16L40.3747 17.32L40.3947 17.4C40.4947 17.4 40.5947 17.38 40.6947 17.36L40.8947 17.42L40.7547 17.5C40.6747 17.52 40.5747 17.54 40.4947 17.54C40.1747 17.54 39.9347 17.66 39.6347 17.66C39.5947 17.72 39.4747 17.74 39.4347 17.8L39.5347 17.76L39.7147 17.84H39.7347L39.5947 17.92C39.3747 17.96 39.1147 17.98 38.8747 17.98C38.5547 17.98 38.1947 18.3 37.8747 18.3H37.8147L37.6347 18.42L37.3747 18.46L37.2947 18.54L37.0747 18.52L36.9147 18.58C36.7147 18.58 36.4947 18.66 36.2947 18.66C36.2147 18.66 36.1147 18.64 36.0347 18.62L35.6147 18.86L35.4747 18.78L35.3947 18.88L35.4547 18.98C35.3347 18.98 35.1947 18.98 35.0747 19L34.9547 18.88V18.98L35.0147 19.1C34.9147 19.14 34.8147 19.18 34.6947 19.18L34.4947 19.26C34.3747 19.24 34.2747 19.24 34.1547 19.24C34.0547 19.4 33.8747 19.42 33.6947 19.42L33.5947 19.62L33.6747 19.8C33.8747 19.88 34.0347 19.92 34.2347 19.92L34.2947 20C34.3947 20.06 34.5147 20.12 34.6347 20.16L34.7747 20.34L34.9147 20.18V20.16L35.0747 20.24L35.1147 20.44L35.4747 20.56L35.6747 20.5L35.8547 20.58L35.8347 20.72L36.0147 20.8H36.0347L36.1947 20.94V20.96L36.3347 20.8H36.3747L36.4947 20.94L36.5147 21.02C36.6947 21.2 36.7747 21.18 37.0147 21.2C37.0147 21.26 37.0147 21.32 37.0347 21.36L37.1547 21.44H37.3747L37.4547 21.64C37.5347 21.64 37.6147 21.66 37.6947 21.66L37.8147 21.86V21.88L38.0347 21.86C38.0747 21.96 38.1547 22.08 38.2347 22.16L38.4547 22.26C38.7747 22.58 39.4347 22.88 39.5147 23.32H39.5347L39.5947 23.44L39.6147 23.38L39.8347 23.48L39.8747 23.7L39.8147 23.9L39.6547 23.94L39.8347 24.14C39.8547 24.32 39.7947 24.58 39.9947 24.68L39.9547 24.84C40.0547 24.96 40.1547 25.1 40.2147 25.24L40.0747 25.38C40.0947 25.46 40.1147 25.64 39.9947 25.66L40.0947 25.78C39.8947 26.08 39.8947 26.38 39.6747 26.68L39.7347 26.86C39.5947 27.28 39.4947 27.5 39.2947 27.9L39.2147 27.96C39.1347 27.92 39.0547 27.88 38.9747 27.82L38.8747 28C38.8147 28.04 38.6547 28.2 38.5947 28.2C38.5547 28.2 38.5347 28.2 38.5147 28.16V28.32L38.5947 28.38C38.7147 28.3 38.8147 28.16 38.9747 28.16C39.0147 28.16 39.0547 28.18 39.0747 28.22L38.6147 28.6C38.0747 28.52 38.2347 28.6 37.7947 28.78L37.6747 28.74L37.7547 28.6L37.6947 28.52L37.3747 28.74L37.3347 29.02L37.5747 28.92V28.96C37.5747 29.02 37.5547 29.16 37.4547 29.16C37.3947 29.16 37.3147 29.12 37.2747 29.1V29.26H37.1347L36.9547 29.38L36.7547 29.42L36.4147 29.76L36.4947 29.9L36.8147 29.98L36.6147 30.06C36.5147 30.04 36.4147 30.04 36.3347 30L36.2147 30.08L36.0747 29.94C35.9747 30.02 35.8747 30.16 35.8347 30.28L35.7147 30.2C35.5747 30.26 35.3947 30.3 35.2347 30.3L35.1747 30.44L34.9347 30.62L35.0347 30.7L34.8547 30.88L34.5947 30.82C34.4747 30.88 34.3547 30.94 34.2347 30.98L34.2947 30.9L34.2147 30.7C34.2947 30.62 34.3947 30.56 34.5147 30.56L34.7347 30.38L35.0347 30.32C35.0947 30.22 35.2747 30.02 35.3947 29.98L35.3347 29.82L35.1147 29.9L34.9547 30.06L34.9747 30.08C34.8347 30.08 34.6747 30.08 34.5347 30.1L34.7147 30.14L34.5747 30.32C34.3947 30.38 34.2147 30.46 34.0347 30.5L33.8947 30.66C33.7547 30.66 33.6347 30.72 33.5747 30.86L33.7347 30.92C33.8147 30.86 33.8947 30.78 33.9947 30.74L34.2347 30.98ZM39.2347 26.56L38.9947 26.64L38.9347 26.56L38.9147 26.64C38.5947 26.86 38.5547 27.3 38.2347 27.52L38.4147 27.66C38.2547 27.7 38.0947 27.72 37.9347 27.8L37.8947 28L38.3147 27.92L38.3347 27.86L38.4147 27.82L38.4947 27.7C38.6147 27.62 38.6947 27.52 38.7147 27.38L39.1747 27.1L39.2547 26.96L39.1747 26.86L39.1347 26.7L39.3147 26.46L39.2747 26.18L39.1347 26.24C39.1747 26.34 39.2147 26.44 39.2347 26.56ZM36.1547 29.48L35.9947 29.56L35.9147 29.76C36.0547 29.76 36.1947 29.72 36.2947 29.6C36.3747 29.56 36.4947 29.48 36.5147 29.38L36.6947 29.12C36.8747 29.06 37.0147 28.94 37.1947 28.88L37.3147 28.72L37.1747 28.62L36.9947 28.68L36.9147 28.9H36.7547C36.5147 29 36.3747 29.18 36.0747 29.28L36.0547 29.36C36.0547 29.42 36.0947 29.46 36.1547 29.48ZM17.2747 33.26H17.9947L17.8547 33.34C17.8747 33.44 17.6547 33.44 17.5947 33.44H17.4947C17.2947 33.56 16.8747 33.56 16.6547 33.54L16.5347 33.62L15.6347 33.6H15.5547C15.5547 33.56 15.7547 33.48 15.7947 33.46C15.9547 33.46 16.6947 33.5 16.8547 33.34L17.1747 33.36L17.2747 33.26ZM30.3747 22.22C30.4347 22.22 30.4747 22.22 30.5147 22.2L30.4347 22.12L30.3747 21.96L30.2147 22C30.1347 21.92 30.0747 21.82 29.9547 21.82L29.8747 21.7C29.7947 21.68 29.7347 21.66 29.6547 21.66H29.5547L29.3947 21.8L29.5347 21.94L29.6547 21.84C29.7347 21.9 29.8547 21.96 29.9547 22C30.0747 22.12 30.2147 22.22 30.3747 22.22ZM22.2747 33.04L22.1347 33.16C22.1347 33.14 22.0947 33.08 22.0747 33.1L21.8947 33.2H21.9147C21.9947 33.2 21.8747 33.24 21.8547 33.24C21.3947 33.24 21.5947 33.38 21.3947 33.4L21.2347 33.5C21.5947 33.46 21.5947 33.34 22.0147 33.34C22.0347 33.3 22.0747 33.28 22.1147 33.28H22.1747L22.3147 33.26L22.3547 33.16L22.3347 33.04H22.2747ZM35.2347 25.08C35.1547 24.9 35.0347 24.84 34.8947 24.72C34.8547 24.58 34.7547 24.46 34.6347 24.36L34.5547 24.46C34.5947 24.56 35.0147 25.06 35.1547 25.12L35.2347 25.08ZM28.8747 30.74L28.7947 30.66L28.8547 30.96H28.8747L29.0947 31.12L29.1947 31.02L28.9947 30.96L29.0547 30.82C29.1547 30.74 29.2747 30.68 29.3547 30.58L29.0347 30.6L28.8747 30.74ZM22.7547 33.18L22.8147 33.16C22.8147 33.14 22.7747 32.96 22.8147 32.96C22.8547 32.96 22.8947 33 22.9147 33.02L22.9347 33.1C23.0347 32.98 23.1347 32.98 23.2347 32.88C23.3147 32.84 23.3947 32.78 23.4747 32.72L23.4547 32.7L23.1747 32.82C23.1347 32.82 23.0547 32.82 23.0347 32.88C22.9147 32.9 22.8347 32.88 22.7547 32.98C22.6747 33 22.5747 33.02 22.4947 33.02L22.5347 33.16L22.7547 33.18ZM28.2747 20.48L28.3347 20.5L28.3747 20.7L28.4747 20.58L28.3547 20.4V20.16C28.4147 20.1 28.4547 20.04 28.4547 19.96V19.92L28.2547 20C28.2747 20.08 28.2347 20.2 28.2147 20.28L28.2747 20.48ZM33.9947 23.64V23.84L34.1947 23.86V23.9L34.3947 23.96L34.6147 24.14L34.5547 23.92C34.3747 23.8 34.1747 23.76 33.9947 23.64ZM37.2547 17.12C36.9747 17.12 36.6747 17.16 36.3947 17.18L36.3547 17.28C36.6547 17.24 36.9947 17.32 37.2547 17.12ZM40.1547 25.94L40.2947 25.56C40.3147 25.7 40.3547 25.84 40.3547 26C40.3547 26.08 40.3347 26.18 40.2747 26.26C40.2147 26.16 40.1547 26.06 40.1547 25.94ZM32.4347 23.12L32.5747 23.02V22.94L32.4347 22.92C32.3347 22.86 32.2347 22.8 32.1547 22.7L32.1347 22.84C32.1347 23 32.3147 23.06 32.4347 23.12ZM34.5347 30.9L34.7747 30.88L34.7147 31.02C34.6147 31.1 34.4947 31.16 34.3747 31.2L34.2347 31.12C34.3547 31.06 34.4747 31.02 34.5347 30.9ZM29.2347 20.88V21.1L29.1747 21.26C29.2947 21.28 29.4347 21.34 29.5347 21.42L29.4747 21.26L29.3747 21.18V21.04L29.2347 20.88ZM38.7347 16.78H38.6547C38.4347 16.78 38.2347 16.86 38.0147 16.86L37.9747 16.94C37.9947 16.96 38.0547 16.94 38.0547 16.9L38.2747 16.88H38.2947L38.2747 16.92C38.4347 16.92 38.6147 16.92 38.7347 16.78ZM19.2147 33.08H19.1747V33.1C18.9547 33.08 18.8947 33.2 18.7347 33.2C18.7147 33.2 18.5347 33.2 18.5347 33.24C18.5347 33.26 18.6347 33.26 18.6347 33.26H18.9347L19.0747 33.2C19.1347 33.2 19.2147 33.16 19.2147 33.08ZM19.4547 35.02C19.4347 35.18 19.1547 35.02 19.1347 35.16C19.2147 35.16 19.7747 35.16 19.7947 35.02H19.4547ZM29.9147 21.32L29.6947 21.26C29.6947 21.42 29.8147 21.54 29.9747 21.54C29.9547 21.48 29.9547 21.38 29.9147 21.32ZM36.8147 29.74C36.9147 29.62 37.0347 29.52 37.1547 29.42L37.1347 29.64C37.0347 29.68 36.9347 29.72 36.8147 29.74ZM30.1747 30.2L30.0747 30.12L30.0147 30.32L30.0747 30.36L30.1947 30.28H30.3147L30.2747 30.12L30.1747 30.2ZM31.4747 31.78C31.1747 31.78 30.9947 31.96 30.7147 32.04L30.7947 32.1L30.8747 32.02C31.0147 31.98 31.1347 31.92 31.2547 31.86H31.2747L31.4747 31.78ZM40.0947 24.44L40.0747 24.18C40.1547 24.26 40.2547 24.38 40.2547 24.5L40.0947 24.44ZM33.4147 19.58L33.2347 19.54V19.56L33.4147 19.88V19.58ZM29.0947 20.72H28.9547L28.9947 20.94L28.9547 21.1L29.0947 20.86V20.72ZM22.9147 33.78L22.8347 33.72C22.7947 33.76 22.7147 33.78 22.6547 33.8L22.6347 33.84C22.6347 33.9 22.7147 33.9 22.7547 33.9L22.9147 33.78ZM28.9147 20.44L28.8147 20.36L28.7947 20.56L28.8747 20.66L28.9147 20.44ZM23.8347 32.5C23.9547 32.48 24.0747 32.44 24.1747 32.4C24.1747 32.36 24.1747 32.34 24.1947 32.3C24.0747 32.36 23.9547 32.42 23.8347 32.5ZM33.2147 31.02C33.0747 31.04 32.8547 31.04 32.7747 31.18L33.2147 31.02ZM18.0747 34.58L18.1947 34.66C18.2347 34.66 18.3147 34.64 18.3147 34.58H18.0747ZM27.1947 31.4C27.2547 31.38 27.3147 31.38 27.3747 31.38L27.4147 31.28C27.3347 31.32 27.2347 31.3 27.1947 31.4ZM28.8547 20.04H28.6947L28.8147 20.18L28.8547 20.04ZM37.4947 17.2L37.6147 17.24H37.6347L37.6747 17.1L37.4947 17.2ZM16.7947 33.94L16.9147 33.98C16.9147 34.02 16.8947 34.04 16.8547 34.04C16.8147 34.04 16.7547 34 16.7547 33.96C16.7547 33.94 16.7947 33.94 16.7947 33.94ZM18.7547 33.4C18.7547 33.46 18.8147 33.48 18.8747 33.48C18.9147 33.48 18.9547 33.48 18.9547 33.44L18.7547 33.4ZM35.8347 29.92L35.6947 29.82V29.96L35.8347 29.92ZM22.3947 33.88H22.2947V33.9C22.2947 33.92 22.3147 33.96 22.3347 33.96C22.3747 33.96 22.4147 33.94 22.4147 33.9L22.3947 33.88ZM19.6947 33.38C19.6747 33.38 19.5547 33.36 19.5547 33.4C19.5547 33.44 19.6947 33.48 19.6947 33.38ZM30.8547 21.94H30.8347L31.0347 22L31.0547 21.96L30.8547 21.94ZM19.8747 34.96V34.98C19.8747 35.02 20.0347 34.96 20.0747 34.96H19.8747ZM19.5147 32.98C19.5147 33 19.5347 33.04 19.5547 33.06C19.5947 33.06 19.5947 33.02 19.5947 33L19.5147 32.98ZM26.2947 31.66V31.68H26.3147V31.7H26.3347C26.3547 31.7 26.3747 31.68 26.3747 31.66V31.64L26.3347 31.66L26.3547 31.64L26.3147 31.62L26.2947 31.64L26.3147 31.66H26.2947ZM39.3547 17.06L39.3347 17.08C39.3947 17.08 39.4747 17.1 39.5547 17.1L39.3547 17.06ZM17.0947 33.9C17.0747 33.94 17.0347 33.98 16.9747 33.98L17.0947 33.9ZM23.6947 32.66H23.6147L23.6547 32.7C23.6747 32.7 23.6947 32.68 23.6947 32.66ZM19.8747 33.34L19.9747 33.28C19.9347 33.28 19.8947 33.3 19.8747 33.34ZM17.0947 33.9C17.1347 33.88 17.1747 33.88 17.1947 33.9H17.0947ZM26.3147 31.68C26.3147 31.66 26.3347 31.66 26.3347 31.66H26.3147V31.68ZM39.9547 25.18C39.9747 25.18 39.9747 25.2 39.9947 25.2C39.9747 25.2 39.9747 25.18 39.9547 25.18Z" fill="#E8DBC1"/>
</svg>
